<?xml version="1.0" encoding="UTF-8"?>
<svg id="Camada_1" data-name="Camada 1" xmlns="http://www.w3.org/2000/svg" viewBox="0 0 1110 1082.16">
  <defs>
    <style>
      .cls-1 {
        fill: #9898fe;
      }

      .cls-2 {
        fill: #393980;
      }

      .cls-3 {
        fill: #01015c;
      }

      .cls-4 {
        fill: #393939;
      }

      .cls-5 {
        fill: #38387f;
      }

      .cls-6 {
        fill: #00005b;
      }

      .cls-7 {
        fill: #383839;
      }

      .cls-8 {
        fill: #01025d;
      }

      .cls-9 {
        fill: #383838;
      }
    </style>
  </defs>
  <path class="cls-6" d="M0,897V184.2c1.88-.79,1.64-2.51,1.84-4.07,.89-6.97,1.61-13.96,2.79-20.88,1.48-8.67,3.96-17.1,6.7-25.47,4.15-12.66,9.75-24.66,16.4-36.16,9.17-15.87,20.53-30.02,33.72-42.77,11.8-11.41,24.8-21.16,39.05-29.19C121.15,14.02,143.13,6.05,166.66,2.61c2.67-.39,5.31-1,7.97-1.51,3.51-.09,7.03-.18,10.54-.27,5.27,.05,10.54,.13,15.82,.13,236.5,0,473,0,709.5,0,5.11,0,10.22-.09,15.34-.14,3.56,.09,7.13,.18,10.7,.27,2.97,.54,5.93,1.13,8.91,1.61,27.68,4.46,53.25,14.37,76.61,29.86,14.44,9.57,27.49,20.74,38.94,33.81,10.26,11.71,19.12,24.35,26.41,38.09,10.65,20.07,17.69,41.34,20.81,63.88,.11,.77,.47,1.51,.72,2.26l.27,13.58c-.05,5.27-.13,10.54-.13,15.82,0,227.23,0,454.46,0,681.69,0,5.11,.09,10.22,.13,15.34-.09,4.53-.18,9.07-.27,13.6-.24,.76-.6,1.49-.71,2.27-1.29,9.03-3.19,17.92-5.7,26.69-5.59,19.52-14.16,37.67-25.37,54.54-11.58,17.43-25.74,32.55-42.22,45.46-15.33,12-32.07,21.55-50.24,28.54-17.4,6.68-35.35,11.04-53.99,12.28-.93,.06-1.85,.44-2.77,.67-1.4,.09-2.8,.18-4.2,.26-3.99-.05-7.99-.13-11.98-.13-237.48,0-474.95,0-712.43,0-3.99,0-7.99,.08-11.98,.13-1.38-.09-2.76-.18-4.13-.27-1.08-.24-2.16-.63-3.25-.69-9.77-.59-19.35-2.34-28.83-4.65-17.65-4.3-34.42-10.81-50.24-19.81-20.07-11.42-37.72-25.77-52.68-43.34-12.61-14.81-22.94-31.11-30.72-48.98-6.54-15.02-11.24-30.6-13.74-46.8-.83-5.36-1.3-10.78-1.9-16.18-.16-1.45-.17-2.92-1.81-3.6Zm447.27-249.77c.52,1.34,1.08,2.65,1.54,4,11.63,34.01,23.3,68.01,34.82,102.06,2.13,6.3,4.72,7.58,10.45,7.53,17.43-.15,34.85-.06,52.28-.06,12.79,0,25.58,0,38.37,0,1.28,0,2.56,.05,3.84-.04,4.22-.29,5.58-2.16,4.66-6.39-.24-1.09-.62-2.14-1-3.2-1.81-5.12-3.62-10.25-5.45-15.36-13.94-38.96-27.88-77.92-41.83-116.88-12.28-34.29-24.57-68.58-36.84-102.88-14.81-41.36-29.61-82.73-44.41-124.09-10.44-29.19-20.85-58.38-31.28-87.57-2.53-7.07-5.13-14.11-7.57-21.22-1.08-3.14-3.07-4.75-6.36-4.78-1.44-.02-2.88-.03-4.32-.03-36.77,0-73.54,0-110.32,0-.8,0-1.6,.06-2.4,0-4.8-.43-6.9,2.16-6.47,6.6,.02,.16,0,.32,0,.48-.47,6.53-.79,13.08-1.47,19.6-.38,3.63-.98,7.33-2.12,10.78-4.43,13.51-9.05,26.96-13.71,40.39-7.75,22.34-15.58,44.65-23.37,66.98-11.05,31.68-22.06,63.37-33.12,95.04-9.37,26.85-18.82,53.67-28.19,80.52-13.32,38.16-26.59,76.34-39.89,114.51-4.47,12.82-8.98,25.63-13.42,38.47-.62,1.8-1.14,3.68-1.32,5.57-.29,3.08,1.2,4.8,4.3,5.25,1.26,.18,2.55,.14,3.83,.14,27.5,0,55-.08,82.5,.07,6.28,.03,9.23-2.33,11.09-8.21,10.42-32.9,21.07-65.72,31.65-98.57,.92-2.86,1.96-5.68,2.85-8.24,.73-.25,1.03-.45,1.32-.45,56.9-.01,113.81-.01,171.33-.01Zm470.48,22c-1.37,.49-2.1,.77-2.84,1.02-4.99,1.7-9.93,3.54-14.97,5.07-8.27,2.51-16.77,3.93-25.27,5.46-13.56,2.44-27.18,4.01-40.91,4.85-23.22,1.43-45.54-2.3-66.99-11.31-16.72-7.03-29.28-18.56-37.59-34.69-4.72-9.17-7.75-18.9-9.58-29.02-.27-1.51-.88-3.11,.1-4.95,1.28-.06,2.69-.19,4.1-.19,47.33,0,94.66-.02,141.99,.03,3.83,0,7.66,.35,11.49,.59,9.25,.58,18.49,1.63,27.78,1.14,11.65-.61,23.3-1.35,34.94-2.14,5-.34,7.18-2.56,7.72-7.47,.19-1.75,.17-3.52,.39-5.26,1.63-12.55,1.96-25.18,2.17-37.81,.19-11.21-.5-22.36-2.25-33.45-4.13-26.15-13.42-50.2-28.38-72.1-12.66-18.51-29.04-32.62-49.11-42.5-22.91-11.28-47.22-16.67-72.7-16.78-8.63-.04-17.27,.3-25.88,.81-9.9,.58-19.7,2.07-29.37,4.32-15.6,3.62-29.89,10.23-43.29,18.85-28.63,18.41-49.55,43.54-64.1,74.09-9.76,20.5-15.6,42.2-18.66,64.68-4.02,29.49-2.48,58.69,4.32,87.63,3.71,15.78,8.95,31.01,16.79,45.26,23.78,43.24,59.76,70.33,107.84,81.41,16.27,3.75,32.77,5.37,49.44,5.81,24.21,.63,48.25-.58,72.09-5.05,11.48-2.15,22.83-4.77,33.83-8.71,4.06-1.45,8.03-3.16,12.06-4.68,3.7-1.4,5.62-4.06,5.88-7.95,.11-1.59,.14-3.19,.14-4.79,0-21.43,0-42.85,0-64.28,0-1.44,.07-2.89-.1-4.31-.13-1.05-.61-2.06-1.08-3.56Z"/>
  <path class="cls-5" d="M925.83,.82c-5.11,.05-10.22,.14-15.34,.14-236.5,0-473,0-709.5,0-5.27,0-10.54-.09-15.82-.13,0-.27,0-.55,0-.82H925.8c.01,.27,.02,.54,.03,.82Z"/>
  <path class="cls-5" d="M187.31,1081.33c3.99-.04,7.99-.13,11.98-.13,237.48,0,474.95,0,712.43,0,3.99,0,7.99,.09,11.99,.13,.09,.27,.14,.54,.18,.82H187.08c.05-.28,.13-.56,.23-.83Z"/>
  <path class="cls-2" d="M1109.18,897.03c-.05-5.11-.13-10.22-.13-15.34,0-227.23,0-454.46,0-681.69,0-5.27,.09-10.54,.13-15.82,0,0,.41,.02,.41,.02h.41V897c-.27,0-.55,0-.82,.03Z"/>
  <path class="cls-4" d="M1109.18,897.03c.27-.02,.55-.03,.82-.03v185.16h-186.12c-.03-.28-.09-.55-.18-.82,1.4-.09,2.8-.17,4.2-.26,3.51,.04,7.03,.12,10.55,.12,54.19,0,108.38,0,162.57,0,1.6,0,3.2,.05,4.79-.06,.91-.06,1.79-.4,2.58-.59,.97-2.24,.63-4.34,.63-6.39,.02-51.79,.02-103.58,0-155.37,0-2.72-.08-5.43-.12-8.15,.09-4.53,.18-9.07,.27-13.6Z"/>
  <path class="cls-4" d="M1110,184.2h-.41s-.41-.02-.41-.02c-.09-4.53-.18-9.05-.27-13.58,.04-2.88,.12-5.75,.12-8.63,0-51.16,0-102.32,0-153.48,0-1.44,.05-2.88-.06-4.31-.07-.91-.41-1.79-.61-2.65-2.23-.82-4.32-.56-6.37-.56-52.44-.01-104.88-.01-157.32,0-2.72,0-5.43,.08-8.15,.12-3.57-.09-7.13-.18-10.7-.27,0-.27-.02-.54-.03-.82h184.2V184.2Z"/>
  <path class="cls-9" d="M187.31,1081.33c-.1,.27-.18,.54-.23,.83-62.36,0-124.72,0-187.08,0v-.96c57.7,0,115.4,0,173.1,0,3.36,0,6.71-.09,10.07-.13,1.38,.09,2.76,.18,4.13,.27Z"/>
  <path class="cls-7" d="M185.16,0c0,.27,0,.55,0,.82-3.51,.09-7.03,.18-10.54,.27-2.87-.04-5.74-.13-8.61-.13-55.34,0-110.68,0-166.01,0C0,.64,0,.04,0,.04,1.44,0,2.88,0,4.32,0H185.16Z"/>
  <path class="cls-1" d="M447.27,647.24c-57.52,0-114.43,0-171.33,.01-.3,0-.6,.2-1.32,.45-.89,2.56-1.93,5.38-2.85,8.24-10.59,32.84-21.23,65.67-31.65,98.57-1.86,5.88-4.81,8.24-11.09,8.21-27.5-.15-55-.06-82.5-.07-1.28,0-2.57,.04-3.83-.14-3.09-.45-4.59-2.17-4.3-5.25,.18-1.88,.7-3.77,1.32-5.57,4.44-12.83,8.95-25.64,13.42-38.47,13.3-38.17,26.57-76.34,39.89-114.51,9.37-26.85,18.81-53.67,28.19-80.52,11.06-31.67,22.08-63.36,33.12-95.04,7.78-22.33,15.62-44.64,23.37-66.98,4.66-13.43,9.28-26.88,13.71-40.39,1.13-3.46,1.74-7.15,2.12-10.78,.68-6.51,1-13.06,1.47-19.6,.01-.16,.02-.32,0-.48-.43-4.44,1.67-7.04,6.47-6.6,.79,.07,1.6,0,2.4,0,36.77,0,73.54,0,110.32,0,1.44,0,2.88,.01,4.32,.03,3.29,.04,5.28,1.65,6.36,4.78,2.44,7.1,5.04,14.15,7.57,21.22,10.43,29.19,20.84,58.38,31.28,87.57,14.79,41.37,29.6,82.73,44.41,124.09,12.28,34.29,24.57,68.58,36.84,102.88,13.95,38.96,27.89,77.92,41.83,116.88,1.83,5.12,3.64,10.24,5.45,15.36,.37,1.05,.76,2.11,1,3.2,.92,4.24-.45,6.1-4.66,6.39-1.27,.09-2.56,.04-3.84,.04-12.79,0-25.58,0-38.37,0-17.43,0-34.85-.1-52.28,.06-5.73,.05-8.32-1.23-10.45-7.53-11.52-34.05-23.19-68.05-34.82-102.06-.46-1.34-1.02-2.65-1.54-4Zm-87.8-284.4c-.42,.49-.73,.69-.81,.96-.33,1.07-.62,2.14-.85,3.23-3.26,14.82-6.89,29.55-11.36,44.06-4.7,15.26-9.44,30.51-14.13,45.77-3.99,12.97-7.99,25.94-11.91,38.93-2.86,9.48-5.48,19.03-8.47,28.46-2.94,9.28-6.22,18.46-9.32,27.69-.29,.85-.35,1.78-.53,2.71,.72,.23,1.16,.49,1.59,.49,37.71,.02,75.42,.02,113.13,0,.43,0,.86-.28,1.6-.54-.27-1.24-.44-2.47-.81-3.64-3.95-12.32-7.99-24.6-11.89-36.93-6.21-19.64-12.34-39.31-18.48-58.97-4.76-15.24-9.61-30.46-14.17-45.75-4.25-14.23-8.16-28.56-12.24-42.83-.34-1.19-.85-2.34-1.34-3.65Z"/>
  <path class="cls-1" d="M917.75,669.23c.47,1.5,.95,2.51,1.08,3.56,.17,1.42,.1,2.87,.1,4.31,0,21.43,0,42.85,0,64.28,0,1.6-.04,3.2-.14,4.79-.26,3.89-2.18,6.56-5.88,7.95-4.03,1.52-8,3.23-12.06,4.68-11.01,3.94-22.35,6.56-33.83,8.71-23.85,4.47-47.89,5.69-72.09,5.05-16.67-.44-33.17-2.06-49.44-5.81-48.08-11.07-84.06-38.16-107.84-81.41-7.84-14.25-13.08-29.48-16.79-45.26-6.81-28.94-8.34-58.14-4.32-87.63,3.06-22.48,8.9-44.18,18.66-64.68,14.55-30.55,35.47-55.69,64.1-74.09,13.41-8.62,27.7-15.23,43.29-18.85,9.68-2.25,19.47-3.74,29.37-4.32,8.61-.51,17.25-.85,25.88-.81,25.47,.12,49.78,5.5,72.7,16.78,20.07,9.88,36.45,23.99,49.11,42.5,14.97,21.89,24.26,45.95,28.38,72.1,1.75,11.09,2.43,22.24,2.25,33.45-.21,12.63-.54,25.25-2.17,37.81-.23,1.74-.2,3.51-.39,5.26-.54,4.91-2.72,7.13-7.72,7.47-11.64,.79-23.28,1.53-34.94,2.14-9.28,.48-18.53-.56-27.78-1.14-3.83-.24-7.66-.58-11.49-.59-47.33-.04-94.66-.03-141.99-.03-1.41,0-2.82,.13-4.1,.19-.98,1.85-.37,3.44-.1,4.95,1.83,10.12,4.86,19.85,9.58,29.02,8.31,16.14,20.87,27.66,37.59,34.69,21.45,9.01,43.76,12.74,66.99,11.31,13.74-.84,27.36-2.42,40.91-4.85,8.5-1.53,17-2.95,25.27-5.46,5.04-1.53,9.98-3.37,14.97-5.07,.74-.25,1.46-.52,2.84-1.02Zm-64.68-135.39c.28-4.4,.42-8.76-.43-12.97-4.83-23.88-18.55-40.25-41.7-48.3-11.29-3.92-23.08-3.89-34.64-2.09-17.68,2.74-31.99,11.68-42.41,26.34-8.32,11.7-12.76,24.96-14.74,39.09-.08,.57,.14,1.18,.26,2.02,1.59,.06,3,.15,4.41,.15,35.33,0,70.66,0,106-.06,4.47,0,8.94-.37,13.41-.64,3.41-.21,6.58-1.25,9.85-3.54Z"/>
  <path class="cls-8" d="M359.47,362.84c.49,1.32,1,2.46,1.34,3.65,4.08,14.28,8,28.6,12.24,42.83,4.56,15.3,9.41,30.51,14.17,45.75,6.14,19.66,12.27,39.33,18.48,58.97,3.9,12.33,7.94,24.62,11.89,36.93,.37,1.17,.54,2.4,.81,3.64-.74,.26-1.17,.54-1.6,.54-37.71,.02-75.42,.02-113.13,0-.43,0-.87-.26-1.59-.49,.18-.94,.25-1.86,.53-2.71,3.1-9.23,6.38-18.41,9.32-27.69,2.99-9.44,5.6-18.99,8.47-28.46,3.93-12.99,7.92-25.96,11.91-38.93,4.7-15.26,9.43-30.51,14.13-45.77,4.47-14.51,8.1-29.24,11.36-44.06,.24-1.09,.53-2.17,.85-3.23,.08-.27,.39-.48,.81-.96Z"/>
  <path class="cls-3" d="M853.07,533.85c-3.27,2.29-6.44,3.33-9.85,3.54-4.47,.27-8.94,.63-13.41,.64-35.33,.06-70.66,.05-106,.06-1.41,0-2.82-.09-4.41-.15-.12-.84-.34-1.45-.26-2.02,1.98-14.13,6.42-27.4,14.74-39.09,10.43-14.65,24.73-23.59,42.41-26.34,11.56-1.79,23.34-1.83,34.64,2.09,23.15,8.04,36.87,24.42,41.7,48.3,.85,4.21,.71,8.57,.43,12.97Z"/>
</svg>