<?xml version="1.0" encoding="UTF-8"?>
<svg id="Camada_1" data-name="Camada 1" xmlns="http://www.w3.org/2000/svg" viewBox="0 0 512.98 336.79">
  <defs>
    <style>
      .cls-1 {
        fill: #f4f4f4;
      }

      .cls-2 {
        fill: #e8e8ee;
      }

      .cls-3 {
        fill: #e8676f;
      }

      .cls-4 {
        fill: #42489b;
      }

      .cls-5 {
        fill: #ecedf0;
      }

      .cls-6 {
        fill: #6f508e;
      }

      .cls-7 {
        fill: #fe4e58;
      }

      .cls-8 {
        fill: #f4f2f3;
      }

      .cls-9 {
        fill: #eaebef;
      }

      .cls-10 {
        fill: #ebebef;
      }

      .cls-11 {
        fill: #e8e9ee;
      }

      .cls-12 {
        fill: #ebecf0;
      }

      .cls-13 {
        fill: #e7e7ed;
      }

      .cls-14 {
        fill: #e7666e;
      }

      .cls-15 {
        fill: #fe4c56;
      }

      .cls-16 {
        fill: #e7e8ee;
      }

      .cls-17 {
        fill: #fe4b55;
      }

      .cls-18 {
        fill: #f5eaeb;
      }

      .cls-19 {
        fill: #ececf0;
      }

      .cls-20 {
        fill: #f4f2f2;
      }

      .cls-21 {
        fill: #fe4d57;
      }
    </style>
  </defs>
  <path class="cls-1" d="M7.58,259.03c166.3,0,332.61,0,498.91,0,2.16,0,4.32-.12,6.49-.18v-24.98c-2.15-.12-4.3-.36-6.45-.36-166.1-.02-332.19-.02-498.29-.02H1.04v-25.55c-.34-.35-.68-.7-1.02-1.05,0,34.67,0,69.34-.02,104.01,.01,0,.03,0,.04,0,.04,0,.07,0,.11,0,0-.04,0-.08,0-.12H7.73c165.93,0,331.85,0,497.78,0,2.16,0,4.32-.1,6.49-.16,.33-.26,.66-.52,.98-.79v-23.98c-.33-.25-.65-.5-.98-.76-2.16-.06-4.33-.16-6.49-.16-165.8,0-331.61,0-497.41,0H1.36v-25.87H7.58Z"/>
  <path class="cls-1" d="M1.04,207.92c-.34-.35-.68-.7-1.02-1.05,0-9.33,0-18.65,0-27.98,.39-.76,.78-1.53,1.17-2.29,2.4,5.1,6.94,5.29,11.71,5.29,71.65-.03,143.29-.02,214.94-.03,1.66,0,3.33-.12,4.99-.18,2.33,.05,4.66,.15,6.98,.15,91.06,.02,182.11,.03,273.17,.05v25.98c-1.66-.06-3.32-.18-4.98-.18-167.33,0-334.65,0-501.98,0-1.66,0-3.32,.15-4.97,.23Z"/>
  <path class="cls-21" d="M512,285.06c-2.16-.06-4.33-.16-6.49-.16-165.8,0-331.61,0-497.41,0H1.36v-25.87c2.03,0,4.13,0,6.22,0,166.3,0,332.61,0,498.91,0,2.16,0,4.32-.12,6.49-.18v25.98c-.33,.08-.65,.16-.98,.24Z"/>
  <path class="cls-7" d="M1.04,207.92c1.66-.08,3.32-.23,4.97-.23,167.33-.01,334.65-.01,501.98,0,1.66,0,3.32,.12,4.98,.18v25.98c-2.15-.12-4.3-.36-6.45-.36-166.1-.02-332.19-.02-498.29-.02H1.04v-25.55Z"/>
  <path class="cls-17" d="M.92,335.95s.24-16.03-.78-25.19H7.73c165.93,0,331.85,0,497.78,0,2.16,0,4.32-.1,6.49-.16,.33,.07,.66,.14,.98,.21v25.98h-8c-1.73-.33-3.46-.96-5.18-.96-162.2-.04-324.4-.04-486.6,0-1.73,0-3.45-.23-5.18,.1-1.67,0-5.43,.02-7.1,.02Z"/>
  <path class="cls-17" d="M.92,335.95s.24-16.28-.78-25.44H7.73c165.93,0,331.85,0,497.78,0,2.16,0,4.32-.1,6.49-.16,.33,.07,.66,.14,.98,.21v25.98h-8c-1.73-.33-3.46-.96-5.18-.96-162.2-.04-324.4-.04-486.6,0-1.73,0-3.47-.12-5.19,.22-1.67,0-5.42,.15-7.08,.15Z"/>
  <path class="cls-15" d="M512.98,181.88c-91.06-.01-182.11-.03-273.17-.05-2.33,0-4.66-.1-6.98-.15,4.65-2.22,6.68-5.81,6.44-11.04-.22-4.89,.11-9.81,.21-14.72,91.17,0,182.33-.02,273.5-.02v25.98Z"/>
  <path class="cls-20" d="M512.98,155.9c-91.17,0-182.33,.02-273.5,.02,0-8.61,0-17.22,0-25.83,89.51,0,179.01,0,268.52,0,1.66,0,3.32-.11,4.98-.17v25.98Z"/>
  <path class="cls-7" d="M512.98,129.92c-1.66,.06-3.32,.17-4.98,.17-89.51,0-179.01,0-268.52,0-.01-8.62-.03-17.24-.04-25.86,.67,.02,1.33,.07,2,.07,89.2,0,178.4,0,267.6,0,1.32,0,2.63-.23,3.95-.36v25.98Z"/>
  <path class="cls-21" d="M512.98,52.97v25.98c-.66-.06-1.32-.18-1.98-.18-90.51,0-181.02,.02-271.53,.04,0-8.64,.01-17.28,.02-25.91,10.81,0,21.63,0,32.44,0,80.35,.02,160.7,.04,241.05,.07Z"/>
  <path class="cls-8" d="M512.98,52.97c-80.35-.02-160.7-.05-241.05-.07-10.81,0-21.63,0-32.44,0,0-8.62,0-17.24,0-25.86,91.16-.02,182.33-.03,273.49-.05v25.98Z"/>
  <path class="cls-17" d="M512.98,26.98c-91.16,.02-182.33,.03-273.49,.05-.09-4.73-.41-9.48-.21-14.2,.18-4.42-1.01-8.01-4.55-10.74,2.33-.03,4.66-.1,6.99-.1,88.42,0,176.84,0,265.25,0,2.01,1,4.01,2,6.02,3V26.98Z"/>
  <path class="cls-1" d="M239.46,78.81c90.51-.02,181.02-.03,271.53-.04,.66,0,1.32,.12,1.98,.18v24.98c-1.32,.12-2.63,.36-3.95,.36-89.2,.01-178.4,.01-267.6,0-.67,0-1.33-.05-2-.07,0-8.47,.02-16.94,.03-25.41Z"/>
  <path class="cls-14" d="M506.96,2c-88.42,0-176.84,0-265.25,0-2.33,0-4.66,.06-6.99,.1-.84-.09-1.68-.17-2.52-.25-.07-.61-.13-1.23-.2-1.84H506.98c0,.67-.01,1.33-.02,2Z"/>
  <path class="cls-3" d="M.92,335.95c2.01-.41,10.55-.12,12.28-.12,162.2-.04,324.4-.04,486.6,0,1.73,0,3.46,.62,5.18,.96-165.65,0-338.4-.84-504.06-.84Z"/>
  <path class="cls-6" d="M232,0c.07,.61,.13,1.23,.2,1.84-.83,.05-1.66,.14-2.49,.14-74.27,0-148.54-.01-222.81-.02,.04-.66,.08-1.31,.12-1.97H232Z"/>
  <path class="cls-18" d="M512,285.06c.33-.08,.65-.16,.98-.24v1c-.33-.25-.65-.5-.98-.76Z"/>
  <path class="cls-18" d="M512.98,310.8c-.33-.07-.66-.14-.98-.21,.33-.26,.66-.52,.98-.79v1Z"/>
  <path class="cls-4" d="M1.2,6.2c1.9-1.41,3.8-2.82,5.69-4.23,74.27,0,148.54,.02,222.81,.02,.83,0,1.66-.09,2.49-.14,.84,.08,1.68,.17,2.52,.25,3.54,2.72,4.74,6.32,4.55,10.74-.2,4.72,.12,9.47,.21,14.2,0,8.62,0,17.24,0,25.86,0,8.64-.01,17.28-.02,25.91,0,8.47-.02,16.94-.03,25.41,.02,8.62,.03,17.24,.04,25.87,0,8.61,0,17.22,0,25.83-.09,4.91-.43,9.83-.2,14.72,.24,5.23-1.79,8.82-6.44,11.04-1.67,.06-3.33,.18-4.99,.18-71.65,0-143.29,0-214.94,.03-4.77,0-9.32-.19-11.71-5.29,0-56.8,.01-113.6,.02-170.4ZM101.63,54.27c.4-.11,.81-.22,1.21-.32-2.88-4.85-.94-8.12,3.5-11.08-5.57,.56-8.66-1.78-10.27-7.33-.11,6.91-4.76,6.99-9.64,7.67,5.21,2.55,5.67,6.34,3.12,11.94,3.18-1.81,5.09-2.9,6.9-3.93,1.85,1.09,3.52,2.07,5.18,3.06Zm123.23-25.7c.03-.44,.06-.88,.09-1.32-5.51,1.24-8.37-1.23-9.82-6.85-.34,6.64-4.63,7.22-9.67,7.71,4.91,2.65,5.91,6.28,4.41,11.18,1.82-1.03,3.63-2.07,5.51-3.13,1.78,1.03,3.57,2.07,6.27,3.64-.64-2.98-1.06-4.98-1.52-7.14,1.55-1.34,3.15-2.72,4.74-4.1Zm-146.88,10.81c-1.47-5.06-.15-8.57,4.52-11.43-5.59,.33-8.65-1.9-10.14-7.62-.17,6.89-4.74,7.28-10.4,7.25,2.74,2.37,4.33,3.75,5.9,5.1-.48,2.14-.92,4.14-1.61,7.2,2.72-1.59,4.5-2.64,6.38-3.74,1.76,1.06,3.56,2.15,5.35,3.24Zm123.85,3.15c-6.82,2.32-8.23-2.72-11.05-6.67,.42,7.25-5.06,6.01-9.24,7.24,2.06,1.8,3.64,3.19,5.27,4.62-.47,2.04-.92,4.05-1.64,7.2,2.81-1.64,4.7-2.73,6.48-3.77,1.97,1.22,3.7,2.3,5.42,3.37-1.41-5.08-.53-8.73,4.76-11.99Zm23.02,78.03c.16-.59,.32-1.19,.48-1.78-6.27,2.22-8.33-1.37-10.27-6.35-.36,6.32-4.36,7.26-9.65,7.55,5.26,2.6,5.66,6.43,3.11,12.03,3.23-1.85,5.15-2.95,6.93-3.97,1.98,1.2,3.68,2.23,6.45,3.91-.83-3.49-1.32-5.51-1.78-7.44,1.73-1.44,3.23-2.7,4.74-3.96Zm-128.47,22.53c1.86,1.07,3.65,2.11,6.35,3.66-.67-3.03-1.11-5.04-1.57-7.09,1.6-1.47,3.18-2.93,4.77-4.4-5.52,.24-8.22-2.46-9.63-7.67-1.02,5.76-4.48,7.45-9.91,7.33,5.17,2.73,5.95,6.44,4.59,11.29,1.81-1.05,3.62-2.09,5.4-3.12ZM38.59,43.09c5.81,2.37,5.68,6.42,3.86,11.75,2.84-1.61,4.63-2.62,6.31-3.57,2,1.1,3.79,2.08,5.57,3.06l1.63-.09c-4.51-5.26-.78-8.09,2.37-11.54-5.73,1.03-8.08-2.16-9.7-7.14-.69,6.2-4.53,7.44-10.03,7.53Zm123.27,88.32c4.16-4.01,7.92-3.31,11.99,0-2.26-5.17-.78-8.67,3.7-11.65-5.86,.72-8.42-2.16-9.92-7.3-.8,6.05-4.43,7.53-9.86,7.4,4.76,2.78,6.27,6.24,4.09,11.55Zm-106.77,14.98c-3.02-5.24-.22-8.51,2.03-10.3-3.26-2.59-6.09-4.84-9.04-7.18-.04,4.83-4.33,5.64-9.26,6.27,5.66,2.33,5.42,6.44,4.22,11.23,4.18-4.1,7.82-3.03,12.05-.01Zm27.15-26.72c-5.95,1.07-8.15-2.29-9.85-7.18-.52,6.26-4.81,7.07-10.46,7.1,2.82,2.38,4.41,3.73,5.92,5-.51,2.22-.97,4.19-1.67,7.21,2.81-1.64,4.6-2.68,6.39-3.72,1.89,1.06,3.74,2.1,5.6,3.15-2.05-5.29,.07-8.4,4.07-11.57Zm31.92,11.78c4.03-3.44,7.78-3.96,11.96-.03-2.24-5.32-.68-8.77,4.08-11.68-5.83,.75-8.63-2.02-10.3-7.1-.51,6.23-4.67,7-9.51,7.35,4.89,2.83,5.5,6.48,3.77,11.46ZM157.7,28.11c5.26,2.53,6.05,6.27,3.31,11.92,3.31-1.85,5.13-2.86,6.82-3.8,1.99,1.13,3.74,2.12,5.49,3.12-2.14-5.23,.37-8.43,4.1-11.76-6.1,1.41-8.05-2.33-9.92-6.98-.5,6.39-4.68,7.18-9.8,7.51ZM30.19,39.24c.48-.06,.96-.13,1.45-.19-3.23-4.87-.91-8.12,3.03-11.34-6.07,1.24-8.03-2.55-9.91-6.94-.74,5.89-4.52,6.98-9.56,7.36,4.86,2.66,5.87,6.31,4.49,11.15,1.8-1.06,3.6-2.12,5.35-3.15,1.83,1.1,3.49,2.1,5.16,3.11Zm118.99,15.02c.48-.07,.96-.15,1.44-.22-3.27-4.86-.91-8.09,3.19-11.63-6.6,2.06-8.02-2.51-10.12-6.58-.76,5.83-4.51,6.95-9.55,7.31,4.9,2.64,5.88,6.3,4.53,11.13,1.8-1.05,3.6-2.1,5.33-3.12,1.84,1.1,3.52,2.1,5.19,3.1ZM30.47,131.21c-1.89-5.03-.05-8.4,4.26-11.38-5.67,.56-8.26-2.25-10.05-7.26-.35,6.31-4.59,6.94-9.59,7.57,5.51,2.41,5.3,6.47,3.25,11.86,3.16-1.86,4.94-2.91,6.64-3.91,1.95,1.11,3.72,2.12,5.49,3.12Zm113.64,11.86c1.93,1.22,3.56,2.25,5.2,3.28,.44-.05,.88-.1,1.31-.15-2.8-4.85-1.61-8.44,3.16-11.3-5.74,.53-8.35-2.31-9.65-7.57-1.48,2.83-2.02,5.23-3.52,6.35-1.43,1.06-3.86,.78-4.75,.92,1.21,3.92,2.29,7.41,3.45,11.19,1.01-.57,2.8-1.59,4.8-2.71ZM110.2,28.04c5.58,2.6,5.33,6.67,3.41,11.97,2.95-1.71,4.76-2.76,6.5-3.77,1.92,1.04,3.7,2,5.47,2.95-1.82-5.13,.21-8.4,4.5-11.42-5.73,.67-8.71-1.64-9.85-7.07-1.32,5.39-4.41,7.54-10.04,7.33Zm81.35,115.05c1.9,1.1,3.68,2.14,6.38,3.7-.69-3.05-1.14-5.05-1.6-7.09,1.56-1.47,3.13-2.96,4.71-4.44,.13-.52,.26-1.04,.39-1.56-6.44,2.49-8.2-1.49-10.09-6.13-.79,5.79-4.24,7.48-9.74,7.3,4.83,2.81,6.17,6.39,4.64,11.34,1.79-1.05,3.58-2.1,5.32-3.12Zm-53.66-57.75c4.24-4.07,8-3.72,12.33-.02-3.04-5.47-.22-8.74,3.63-12.4-6.68,2.45-7.92-2.43-10.29-6.34-.4,6.08-4.49,6.86-9.46,7.2,5.13,2.66,5.84,6.42,3.79,11.55Zm-27.49-26.89c5.33,2.9,5.28,6.87,3.43,11.43q6.8-2.5,12.99,.36c-2.98-5.24-1.17-8.78,3.39-12.14-6.58,2.05-8.24-2.09-10.11-7.44-1.57,5.46-3.48,8.98-9.71,7.79Zm-37.9,23.7c-1.09,5.42-4.32,7.54-9.81,7.29,5.64,2.58,5.27,6.68,3.06,12.19,3.27-2.02,5.05-3.12,6.8-4.21,1.98,1.15,3.79,2.2,5.6,3.26-2.54-5.16,.18-8.42,4.15-11.62-5.98,1.19-8.12-2.08-9.8-6.9Zm118.98,30.32c1.96,1.08,3.85,2.13,6.11,3.38q-.89-5.9,3.1-11.51-5.44-1.06-9.73-7.46c-.54,5.74-3.82,7.78-9.3,7.56,5.62,2.61,5.31,6.65,3.06,12.14,3.21-1.95,5-3.04,6.78-4.12Zm17.64-42.15c4.25-3.76,8.12-3.94,12.74,.04-3.99-5.82-.28-8.71,3.77-12.04-3.17-.25-5.25-.42-7.33-.59-.88-2.01-1.71-3.91-2.54-5.81-1.58,4.92-4.8,7.04-10.41,6.75,5.61,2.74,5.67,6.64,3.77,11.65ZM15.27,58.31c3.82,3.23,6.46,6.55,3.53,12.03,4.32-3.89,8.09-3.97,12.38,.01-2.72-5.4-.44-8.83,3.63-12.09-6.08,1.43-8.15-2.18-9.97-6.63-1.21,5.16-3.91,7.58-9.57,6.68Zm51.18,103.16c4.26-3.34,8.12-2.79,12.49,.67-2.91-5.38-.55-8.74,3.47-12.07-6.19,1.57-8.26-1.97-9.59-7.7-1.49,3.45-2.32,5.37-3.15,7.3-2.19,.18-4.25,.35-7.39,.61,2.39,2.13,4.03,3.58,5.6,4.98-.51,2.2-.97,4.21-1.43,6.21Zm53.81-18.08c-1.48,5.08-4.2,7.67-10.25,7.27,6.7,2.25,5.18,6.83,4.34,11.52,4.02-4.35,7.79-3.13,12.1-.31-3.24-5.39-.28-8.42,3.52-11.62-5.66,.9-8.51-1.52-9.7-6.86Zm84.86,6.2q4.99,5.86,4.2,13.56c4.04-5.39,7.9-4.35,12.48-.18-.76-3.5-2.03-5.84-1.42-7.46,.69-1.81,3.09-2.98,5.65-5.22-3.53-.28-5.59-.45-7.62-.61-.97-2.02-1.9-3.93-3.5-7.26-.95,6.39-3.66,8.72-9.79,7.16Zm-20.16-63.84c2.95-1.78,4.74-2.85,6.51-3.91,1.97,1.08,3.85,2.11,5.73,3.14,.62-.03,1.24-.06,1.86-.09-5.44-5.51-1-8.07,2.15-11.64-5.71,1.23-8.2-1.87-9.86-6.78-.79,6.03-4.57,7.15-10.31,6.76,2.64,2.38,4.29,3.86,5.84,5.26-.56,2.12-1.06,3.99-1.92,7.28Zm-94.79-.39c4.25-3.9,8.12-3.8,12.42-.09-2.76-5.44-.55-8.79,4.7-11.89-3.84-.3-5.92-.46-7.96-.62-.9-2.04-1.74-3.93-2.57-5.83-.5-.44-.99-.89-1.49-1.33,.71,7.33-3.78,7.76-8.85,8.23,5.6,2.57,5.58,6.49,3.75,11.52Zm77.49,58.17c-.88,5.76-4.52,7.08-10.15,7.16,6.4,2.19,5.43,6.64,4.46,11.45,4.13-4.51,7.87-3.04,12.13,.01-2.94-5.32-.62-8.72,3.33-11.96-5.8,1.1-8.23-1.62-9.78-6.66Zm-77.28-27.52c4.03-3.92,7.9-3.77,12.64,.07-4.53-5.98-.26-8.75,3.15-12.18-6.09,1.62-8.21-1.91-9.86-6.68-1.24,5.37-4.31,7.49-9.94,7.31,6.1,2.41,5.16,6.62,4,11.49Zm-8.03-57.91c-6.51,2.12-8.01-2.28-9.93-6.65-.87,5.9-4.47,7.25-10.43,6.66,2.72,2.43,4.37,3.91,5.94,5.31-.59,2.19-1.11,4.16-1.64,6.14,.22,.41,.44,.83,.66,1.24,3.75-4.75,7.62-3.9,11.81-.66-2.37-5.22-.78-8.63,3.59-12.05Zm133.02,24.3c-1.37,5.1-4.33,7.37-9.72,6.97,4.92,2.8,5.4,6.57,3.58,11.61,4.15-3.92,8.01-3.74,12.41-.02-3.03-5.53-.57-8.83,3.55-11.96-5.91,1.23-8.3-1.61-9.82-6.59Zm-53.61-12.08c4.19-4.54,8.07-3.02,12.33-.33-3.05-5.26-.52-8.46,3.51-11.9-6.6,2.11-8.01-2.39-10.3-6.8-.1,6.63-4.42,7.09-9.4,7.46,4.74,2.69,6.11,6.22,3.87,11.58Zm-127.21,19.01c-6.09,1.17-7.79-2.86-9.77-7.11-.95,5.31-4.05,7.42-9.47,7.35,5.61,2.54,5.01,6.69,3.8,11.47,4.08-4.54,7.84-3.51,11.9-.19-1.48-4.8-1.51-8.62,3.54-11.52Zm23.98-16.04c-6.52,1.93-7.9-2.56-9.56-6.79q-3.26,5.66-10.62,7.59c5.68,2.2,6.08,6.18,4.69,11.14,4.13-4.76,7.9-2.63,11.96-.19-2.36-5.04-1.07-8.44,3.54-11.75Zm-27.38,88.96c-2.6-5.26-.52-8.76,3.4-12.02-5.83,1.09-8.01-2.03-9.57-6.67-1.31,4.99-4.13,7.44-9.83,7.04,5.55,2.66,5.18,6.74,3.89,11.62,4.06-3.87,7.82-3.94,12.1,.03Zm11.77-46.34c4.12-5.12,8.06-2.37,12.25-.45-3.2-5.17-.45-8.14,3.2-11.37-5.79,1.19-8.01-2.11-9.8-7.02-.81,5.92-4.23,7.54-9.46,7.22,4.21,2.88,6.11,6.21,3.81,11.61Zm77.3-33.49c-1.34,5.15-4.42,7.24-9.74,7.08,5.33,2.68,5.25,6.65,3.58,11.55,4.05-3.88,7.81-4.04,12.19-.39-2.75-5.39-.31-8.56,3.71-11.53-5.66,.87-8.33-1.6-9.74-6.71Zm14.08,22.03c5.21,2.63,5.02,6.75,3.92,11.55,4.05-4.8,7.8-3.03,12.35-.16-3.68-5.4-.86-8.51,3.14-11.94-6.52,2.02-7.84-2.63-10.27-7.89-.79,6.55-3.7,8.67-9.14,8.44Zm33.6-22.73c-1.36,2.85-1.79,5.34-3.25,6.37-1.57,1.11-4.11,.85-5.03,1,1.25,3.72,2.4,7.15,3.63,10.81,2.84-3.14,6.58-2.49,10.73,1.07-2.44-5.17-.97-8.8,3.46-11.91-5.94,1.15-8.05-2.13-9.54-7.35Z"/>
  <path class="cls-2" d="M101.63,54.27c-1.67-.98-3.33-1.97-5.18-3.06-1.81,1.03-3.71,2.12-6.9,3.93,2.54-5.59,2.09-9.39-3.12-11.94,4.88-.69,9.53-.77,9.64-7.67,1.61,5.55,4.7,7.89,10.27,7.33-4.44,2.97-6.38,6.23-3.5,11.08-.4,.11-.81,.22-1.21,.32Z"/>
  <path class="cls-11" d="M224.86,28.57c-1.59,1.38-3.19,2.76-4.74,4.1,.46,2.16,.89,4.16,1.52,7.14-2.7-1.57-4.49-2.61-6.27-3.64-1.88,1.07-3.69,2.1-5.51,3.13,1.51-4.9,.51-8.53-4.41-11.18,5.04-.49,9.33-1.07,9.67-7.71,1.45,5.61,4.31,8.08,9.82,6.85-.03,.44-.06,.88-.09,1.32Z"/>
  <path class="cls-13" d="M77.97,39.38c-1.8-1.09-3.59-2.17-5.35-3.24-1.87,1.1-3.66,2.15-6.38,3.74,.68-3.07,1.13-5.07,1.61-7.2-1.57-1.36-3.16-2.73-5.9-5.1,5.66,.03,10.23-.36,10.4-7.25,1.5,5.73,4.55,7.95,10.14,7.62-4.67,2.86-6,6.36-4.52,11.43Z"/>
  <path class="cls-13" d="M201.83,42.54c-5.29,3.25-6.16,6.91-4.76,11.99-1.72-1.07-3.45-2.14-5.42-3.37-1.78,1.04-3.66,2.13-6.48,3.77,.72-3.15,1.18-5.16,1.64-7.2-1.63-1.43-3.22-2.82-5.27-4.62,4.18-1.23,9.65,.01,9.24-7.24,2.81,3.95,4.23,8.99,11.05,6.67Z"/>
  <path class="cls-11" d="M224.84,120.57c-1.51,1.26-3.01,2.52-4.74,3.96,.46,1.93,.94,3.95,1.78,7.44-2.77-1.68-4.47-2.71-6.45-3.91-1.78,1.02-3.7,2.12-6.93,3.97,2.55-5.6,2.15-9.43-3.11-12.03,5.29-.29,9.29-1.23,9.65-7.55,1.94,4.99,4,8.57,10.27,6.35-.16,.59-.32,1.19-.48,1.78Z"/>
  <path class="cls-11" d="M96.37,143.1c-1.78,1.03-3.59,2.08-5.4,3.12,1.36-4.86,.58-8.56-4.59-11.29,5.43,.12,8.9-1.57,9.91-7.33,1.41,5.22,4.11,7.91,9.63,7.67-1.58,1.46-3.17,2.92-4.77,4.4,.45,2.06,.9,4.07,1.57,7.09-2.7-1.56-4.49-2.59-6.35-3.66Z"/>
  <path class="cls-13" d="M38.59,43.09c5.5-.09,9.34-1.33,10.03-7.53,1.62,4.98,3.98,8.16,9.7,7.14-3.14,3.45-6.88,6.27-2.37,11.54l-1.63,.09c-1.79-.98-3.57-1.96-5.57-3.06-1.67,.95-3.46,1.96-6.31,3.57,1.82-5.32,1.95-9.38-3.86-11.75Z"/>
  <path class="cls-11" d="M161.86,131.41c2.18-5.31,.67-8.78-4.09-11.55,5.43,.12,9.06-1.35,9.86-7.4,1.5,5.14,4.06,8.03,9.92,7.3-4.47,2.98-5.95,6.48-3.7,11.65-4.07-3.31-7.83-4.01-11.99,0Z"/>
  <path class="cls-13" d="M55.09,146.39c-4.23-3.01-7.87-4.09-12.05,.01,1.19-4.79,1.43-8.9-4.22-11.23,4.93-.63,9.22-1.44,9.26-6.27,2.95,2.34,5.78,4.59,9.04,7.18-2.25,1.79-5.05,5.06-2.03,10.3Z"/>
  <path class="cls-16" d="M82.25,119.67c-4,3.16-6.12,6.27-4.07,11.57-1.86-1.04-3.71-2.09-5.6-3.15-1.78,1.04-3.57,2.08-6.39,3.72,.7-3.03,1.15-4.99,1.67-7.21-1.5-1.27-3.1-2.62-5.92-5,5.64-.04,9.94-.84,10.46-7.1,1.7,4.9,3.9,8.26,9.85,7.18Z"/>
  <path class="cls-2" d="M114.17,131.45c1.73-4.98,1.12-8.62-3.77-11.46,4.83-.35,8.99-1.12,9.51-7.35,1.67,5.08,4.47,7.85,10.3,7.1-4.76,2.91-6.32,6.36-4.08,11.68-4.18-3.93-7.93-3.41-11.96,.03Z"/>
  <path class="cls-2" d="M157.7,28.11c5.12-.33,9.3-1.12,9.8-7.51,1.87,4.65,3.81,8.39,9.92,6.98-3.73,3.33-6.24,6.53-4.1,11.76-1.75-.99-3.49-1.98-5.49-3.12-1.69,.94-3.51,1.95-6.82,3.8,2.74-5.64,1.95-9.39-3.31-11.92Z"/>
  <path class="cls-13" d="M30.19,39.24c-1.67-1-3.34-2.01-5.16-3.11-1.75,1.03-3.55,2.09-5.35,3.15,1.39-4.84,.37-8.49-4.49-11.15,5.04-.38,8.82-1.47,9.56-7.36,1.89,4.39,3.84,8.18,9.91,6.94-3.94,3.22-6.26,6.47-3.03,11.34-.48,.06-.96,.13-1.45,.19Z"/>
  <path class="cls-13" d="M149.19,54.26c-1.67-1-3.34-2-5.19-3.1-1.73,1.01-3.53,2.06-5.33,3.12,1.35-4.83,.36-8.48-4.53-11.13,5.04-.36,8.8-1.48,9.55-7.31,2.1,4.07,3.52,8.64,10.12,6.58-4.09,3.53-6.46,6.77-3.19,11.63-.48,.07-.96,.15-1.44,.22Z"/>
  <path class="cls-16" d="M30.47,131.21c-1.77-1.01-3.54-2.02-5.49-3.12-1.7,1-3.48,2.05-6.64,3.91,2.05-5.39,2.27-9.44-3.25-11.86,5-.62,9.24-1.25,9.59-7.57,1.78,5,4.38,7.82,10.05,7.26-4.31,2.98-6.15,6.35-4.26,11.38Z"/>
  <path class="cls-16" d="M144.11,143.06c-1.99,1.13-3.78,2.14-4.8,2.71-1.16-3.78-2.24-7.27-3.45-11.19,.89-.14,3.32,.15,4.75-.92,1.5-1.12,2.05-3.53,3.52-6.35,1.29,5.26,3.91,8.1,9.65,7.57-4.77,2.86-5.96,6.46-3.16,11.3-.44,.05-.88,.1-1.31,.15-1.63-1.03-3.26-2.06-5.2-3.28Z"/>
  <path class="cls-13" d="M110.2,28.04c5.63,.21,8.73-1.94,10.04-7.33,1.13,5.43,4.12,7.73,9.85,7.07-4.29,3.02-6.32,6.29-4.5,11.42-1.78-.96-3.55-1.92-5.47-2.95-1.74,1.01-3.55,2.06-6.5,3.77,1.92-5.3,2.17-9.37-3.41-11.97Z"/>
  <path class="cls-2" d="M191.55,143.09c-1.74,1.02-3.53,2.07-5.32,3.12,1.53-4.95,.2-8.53-4.64-11.34,5.5,.18,8.95-1.51,9.74-7.3,1.89,4.64,3.65,8.62,10.09,6.13-.13,.52-.26,1.04-.39,1.56-1.57,1.48-3.14,2.96-4.71,4.44,.46,2.04,.92,4.04,1.6,7.09-2.7-1.57-4.48-2.6-6.38-3.7Z"/>
  <path class="cls-9" d="M137.89,85.35c2.04-5.13,1.33-8.89-3.79-11.55,4.97-.35,9.06-1.12,9.46-7.2,2.37,3.91,3.61,8.79,10.29,6.34-3.84,3.66-6.67,6.92-3.63,12.4-4.33-3.7-8.09-4.05-12.33,.02Z"/>
  <path class="cls-19" d="M110.4,58.46c6.23,1.19,8.14-2.33,9.71-7.79,1.87,5.35,3.52,9.49,10.11,7.44-4.57,3.36-6.38,6.89-3.39,12.14q-6.19-2.87-12.99-.36c1.85-4.55,1.9-8.52-3.43-11.43Z"/>
  <path class="cls-12" d="M72.5,82.16c1.69,4.81,3.82,8.08,9.8,6.9-3.97,3.2-6.7,6.47-4.15,11.62-1.81-1.05-3.62-2.11-5.6-3.26-1.76,1.09-3.53,2.19-6.8,4.21,2.21-5.51,2.59-9.6-3.06-12.19,5.48,.25,8.71-1.87,9.81-7.29Z"/>
  <path class="cls-10" d="M191.47,112.49c-1.78,1.08-3.56,2.17-6.78,4.12,2.25-5.49,2.56-9.54-3.06-12.14,5.48,.22,8.77-1.82,9.3-7.56q4.3,6.4,9.73,7.46-3.99,5.61-3.1,11.51c-2.26-1.25-4.15-2.29-6.11-3.38Z"/>
  <path class="cls-9" d="M209.11,70.34c1.9-5.02,1.83-8.92-3.77-11.65,5.62,.29,8.83-1.83,10.41-6.75,.83,1.9,1.66,3.81,2.54,5.81,2.08,.17,4.16,.33,7.33,.59-4.05,3.33-7.76,6.22-3.77,12.04-4.62-3.98-8.49-3.8-12.74-.04Z"/>
  <path class="cls-9" d="M15.27,58.31c5.66,.9,8.36-1.52,9.57-6.68,1.82,4.46,3.89,8.06,9.97,6.63-4.08,3.26-6.35,6.69-3.63,12.09-4.29-3.98-8.06-3.9-12.38-.01,2.93-5.48,.29-8.8-3.53-12.03Z"/>
  <path class="cls-12" d="M66.45,161.47c.46-2,.93-4.01,1.43-6.21-1.57-1.39-3.2-2.85-5.6-4.98,3.14-.26,5.2-.43,7.39-.61,.83-1.93,1.66-3.84,3.15-7.3,1.33,5.72,3.4,9.27,9.59,7.7-4.03,3.33-6.38,6.68-3.47,12.07-4.37-3.47-8.24-4.01-12.49-.67Z"/>
  <path class="cls-5" d="M120.26,143.4c1.19,5.34,4.04,7.76,9.7,6.86-3.8,3.2-6.75,6.22-3.52,11.62-4.31-2.82-8.08-4.04-12.1,.31,.84-4.69,2.36-9.27-4.34-11.52,6.06,.41,8.77-2.19,10.25-7.27Z"/>
  <path class="cls-10" d="M205.12,149.59c6.13,1.56,8.83-.78,9.79-7.16,1.61,3.33,2.53,5.25,3.5,7.26,2.03,.16,4.09,.33,7.62,.61-2.56,2.24-4.96,3.4-5.65,5.22-.62,1.62,.65,3.95,1.42,7.46-4.57-4.17-8.44-5.21-12.48,.18q.78-7.71-4.2-13.56Z"/>
  <path class="cls-12" d="M184.96,85.75c.87-3.28,1.36-5.15,1.92-7.28-1.55-1.4-3.2-2.88-5.84-5.26,5.74,.39,9.52-.73,10.31-6.76,1.66,4.91,4.16,8.01,9.86,6.78-3.15,3.57-7.59,6.14-2.15,11.64-.62,.03-1.24,.06-1.86,.09-1.88-1.03-3.77-2.06-5.73-3.14-1.77,1.06-3.55,2.14-6.51,3.91Z"/>
  <path class="cls-9" d="M90.18,85.36c1.83-5.02,1.85-8.95-3.75-11.52,5.07-.48,9.56-.91,8.85-8.23,.5,.44,.99,.89,1.49,1.33,.84,1.89,1.67,3.79,2.57,5.83,2.04,.16,4.12,.32,7.96,.62-5.24,3.1-7.45,6.45-4.7,11.89-4.3-3.71-8.17-3.81-12.42,.09Z"/>
  <path class="cls-5" d="M167.67,143.53c1.55,5.04,3.97,7.77,9.78,6.66-3.96,3.25-6.27,6.64-3.33,11.96-4.26-3.06-8-4.52-12.13-.01,.96-4.81,1.94-9.27-4.46-11.45,5.62-.08,9.27-1.4,10.15-7.16Z"/>
  <path class="cls-12" d="M90.38,116.01c1.16-4.86,2.1-9.08-4-11.49,5.63,.18,8.7-1.94,9.94-7.31,1.65,4.77,3.76,8.3,9.86,6.68-3.41,3.43-7.68,6.2-3.15,12.18-4.74-3.83-8.61-3.98-12.64-.07Z"/>
  <path class="cls-12" d="M82.36,58.1c-4.37,3.42-5.96,6.83-3.59,12.05-4.19-3.24-8.07-4.09-11.81,.66-.22-.41-.44-.83-.66-1.24,.53-1.97,1.06-3.95,1.64-6.14-1.57-1.41-3.22-2.88-5.94-5.31,5.96,.6,9.57-.75,10.43-6.66,1.92,4.37,3.42,8.77,9.93,6.65Z"/>
  <path class="cls-12" d="M215.37,82.4c1.52,4.98,3.92,7.83,9.82,6.59-4.12,3.14-6.57,6.43-3.55,11.96-4.4-3.73-8.26-3.9-12.41,.02,1.82-5.03,1.34-8.81-3.58-11.61,5.39,.4,8.35-1.86,9.72-6.97Z"/>
  <path class="cls-19" d="M161.76,70.32c2.23-5.36,.87-8.89-3.87-11.58,4.98-.37,9.3-.83,9.4-7.46,2.3,4.41,3.7,8.91,10.3,6.8-4.02,3.44-6.56,6.65-3.51,11.9-4.26-2.68-8.14-4.21-12.33,.33Z"/>
  <path class="cls-10" d="M34.56,89.33c-5.05,2.9-5.02,6.72-3.54,11.52-4.06-3.32-7.81-4.34-11.9,.19,1.21-4.78,1.81-8.93-3.8-11.47,5.42,.07,8.52-2.04,9.47-7.35,1.97,4.25,3.67,8.28,9.77,7.11Z"/>
  <path class="cls-12" d="M58.54,73.29c-4.6,3.31-5.9,6.71-3.54,11.75-4.06-2.43-7.82-4.56-11.96,.19,1.39-4.96,.99-8.94-4.69-11.14q7.36-1.94,10.62-7.59c1.66,4.22,3.04,8.72,9.56,6.79Z"/>
  <path class="cls-19" d="M31.16,162.25c-4.28-3.97-8.04-3.89-12.1-.03,1.28-4.88,1.65-8.96-3.89-11.62,5.7,.4,8.51-2.06,9.83-7.04,1.56,4.64,3.74,7.77,9.57,6.67-3.92,3.25-6.01,6.75-3.4,12.02Z"/>
  <path class="cls-12" d="M42.94,115.91c2.3-5.39,.39-8.73-3.81-11.61,5.24,.32,8.66-1.3,9.46-7.22,1.79,4.91,4.01,8.21,9.8,7.02-3.65,3.23-6.4,6.2-3.2,11.37-4.19-1.92-8.13-4.67-12.25,.45Z"/>
  <path class="cls-10" d="M120.23,82.42c1.41,5.11,4.07,7.58,9.74,6.71-4.02,2.97-6.45,6.14-3.71,11.53-4.38-3.65-8.14-3.5-12.19,.39,1.67-4.89,1.75-8.87-3.58-11.55,5.32,.16,8.4-1.93,9.74-7.08Z"/>
  <path class="cls-12" d="M134.31,104.45c5.44,.23,8.35-1.89,9.14-8.44,2.43,5.26,3.74,9.91,10.27,7.89-3.99,3.43-6.82,6.55-3.14,11.94-4.56-2.88-8.3-4.64-12.35,.16,1.1-4.8,1.29-8.93-3.92-11.55Z"/>
  <path class="cls-19" d="M167.91,81.72c1.49,5.22,3.59,8.49,9.54,7.35-4.43,3.11-5.9,6.74-3.46,11.91-4.15-3.57-7.9-4.21-10.73-1.07-1.23-3.66-2.38-7.09-3.63-10.81,.93-.15,3.46,.11,5.03-1,1.46-1.03,1.89-3.52,3.25-6.37Z"/>
</svg>