<?xml version="1.0" encoding="UTF-8"?>
<svg id="Camada_2" data-name="Camada 2" xmlns="http://www.w3.org/2000/svg" viewBox="0 0 328.29 371.76">
  <defs>
    <style>
      .cls-1 {
        fill: #fdfefe;
      }

      .cls-2 {
        fill: #e8e9ea;
      }

      .cls-3 {
        fill: #eaeaea;
      }

      .cls-4 {
        fill: #006fb9;
      }

      .cls-5 {
        fill: #2ba7de;
      }

      .cls-6 {
        fill: #29a7df;
      }

      .cls-7 {
        fill: #e9e9ea;
      }
    </style>
  </defs>
  <g id="Camada_1-2" data-name="Camada 1">
    <g>
      <path class="cls-4" d="M0,0H328.29c-.78,9.17-1.52,18.21-2.33,27.25-3.19,35.83-6.4,71.65-9.61,107.47-3.18,35.49-6.37,70.98-9.54,106.47-2.5,28.03-4.98,56.06-7.47,84.09-.04,.5-.07,1-.1,1.5q-.59,8.28-8.52,10.5c-40.88,11.35-81.76,22.72-122.68,33.93-2.56,.7-5.64,.74-8.2,.04-42.04-11.53-84.02-23.26-126.05-34.81-3.29-.9-4.32-2.41-4.62-5.8-5.09-58.06-10.39-116.09-15.57-174.14C9.1,106.08,4.69,55.65,.25,5.23,.1,3.61,.09,1.98,0,0ZM163.36,151.16H68.06c1.25,14.23,2.42,27.59,3.64,41.51,2.27,0,4.22,0,6.17,0,28.5,.06,56.99,.11,85.49,.17,0,21.44,0,42.88,0,64.32-13.82-3.64-27.6-7.43-41.48-10.84-3.94-.97-5.22-2.88-5.45-6.76-.55-9.25-1.55-18.47-2.37-27.76h-42.44c1.97,21.99,3.91,43.67,5.88,65.58,3.77,1.07,7.42,2.12,11.08,3.14,24.96,6.98,49.92,13.96,74.88,20.94,.02,12.33,.12,24.66,.03,36.99-.03,3.93,.96,5.44,5.26,4.23,33.36-9.37,66.75-18.61,100.16-27.78,3.1-.85,4.2-2.42,4.46-5.56,2.32-28.19,4.7-56.38,7.23-84.56,2.77-30.83,5.79-61.63,8.6-92.46,3.04-33.31,5.92-66.63,8.98-99.94,.37-3.99-.55-5.78-4.96-5.77-41.33,.11-82.65,.11-123.98,0-4.38-.01-5.84,1.6-5.78,5.88,.16,11.99,0,23.99-.02,35.99H61.19c1.28,14.18,2.48,27.5,3.71,41.16,33.25,0,65.88,0,98.52,0-.02,13.84-.03,27.69-.05,41.53Z"/>
      <path class="cls-6" d="M163.45,68.48c.03-12,.18-24,.02-35.99-.06-4.28,1.4-5.89,5.78-5.88,41.33,.11,82.65,.11,123.98,0,4.41-.01,5.33,1.78,4.96,5.77-3.06,33.31-5.94,66.63-8.98,99.94-2.81,30.82-5.83,61.63-8.6,92.46-2.54,28.18-4.92,56.37-7.23,84.56-.26,3.14-1.36,4.71-4.46,5.56-33.41,9.17-66.81,18.41-100.16,27.78-4.3,1.21-5.29-.29-5.26-4.23,.09-12.33,0-24.66-.03-36.99,.33-.18,.66-.36,.99-.54,27.09-7.45,54.19-14.86,81.24-22.46,1.2-.34,2.59-2.39,2.73-3.77,1.45-14.07,2.72-28.16,3.93-42.25,2.46-28.84,4.78-57.7,7.3-86.53,2.08-23.87,4.38-47.72,6.54-71.59,.16-1.74,.02-3.5,.02-5.67-5.95,0-11.42-.01-16.88,0-28.3,.07-56.61,.15-84.91,.23-.32-.14-.65-.27-.97-.41Z"/>
      <path class="cls-7" d="M164.46,300.92c-.33,.18-.66,.36-.99,.54-24.96-6.98-49.92-13.96-74.88-20.94-3.66-1.02-7.31-2.07-11.08-3.14-1.96-21.91-3.91-43.59-5.88-65.58h42.44c.82,9.3,1.82,18.52,2.37,27.76,.23,3.88,1.51,5.79,5.45,6.76,13.88,3.41,27.66,7.2,41.48,10.84,.34,.12,.68,.24,1.02,.37,.03,14.47,.05,28.93,.08,43.4Z"/>
      <path class="cls-2" d="M163.45,68.48c.32,.14,.65,.27,.97,.41,0,13.48-.01,26.96-.02,40.44-.33,.1-.66,.21-.98,.31-32.64,0-65.27,0-98.52,0-1.23-13.66-2.43-26.98-3.71-41.16h102.26Z"/>
      <path class="cls-3" d="M163.36,192.83c-28.5-.06-56.99-.11-85.49-.17-1.95,0-3.9,0-6.17,0-1.22-13.91-2.39-27.28-3.64-41.51,32.1,0,63.7,0,95.3,0,.34,.14,.68,.27,1.02,.41,0,13.62,0,27.24,0,40.86-.34,.14-.68,.27-1.02,.41Z"/>
      <path class="cls-5" d="M163.36,192.83c.34-.14,.68-.27,1.02-.41,16.53,0,33.06,0,49.98,0-1.64,16.76-3.32,32.44-4.58,48.15-.3,3.73-1.85,4.98-5.13,5.84-13.46,3.57-26.86,7.38-40.28,11.1-.34-.12-.68-.24-1.02-.37,0-21.44,0-42.88,0-64.32Z"/>
      <path class="cls-5" d="M164.38,151.57c-.34-.14-.68-.27-1.02-.41,.02-13.84,.04-27.69,.05-41.53,.33-.1,.66-.21,.99-.31,19.21,0,38.42,0,57.91,0-1.34,12.82-2.81,24.69-3.72,36.6-.32,4.22-1.45,5.58-5.85,5.52-16.11-.21-32.24,.04-48.35,.12Z"/>
      <path class="cls-1" d="M164.38,151.57c16.12-.08,32.24-.34,48.35-.12,4.4,.06,5.53-1.3,5.85-5.52,.9-11.91,2.37-23.78,3.72-36.6-19.49,0-38.7,0-57.91,0,0-13.48,.01-26.96,.02-40.44,28.3-.08,56.61-.15,84.91-.23,5.47-.01,10.93,0,16.88,0,0,2.17,.14,3.93-.02,5.67-2.16,23.86-4.46,47.72-6.54,71.59-2.52,28.84-4.83,57.69-7.3,86.53-1.2,14.09-2.48,28.18-3.93,42.25-.14,1.37-1.53,3.43-2.73,3.77-27.05,7.61-54.15,15.02-81.24,22.46-.03-14.47-.05-28.93-.08-43.4,13.42-3.72,26.82-7.53,40.28-11.1,3.27-.87,4.83-2.11,5.13-5.84,1.26-15.71,2.95-31.39,4.58-48.15-16.93,0-33.45,0-49.98,0,0-13.62,0-27.24,0-40.86Z"/>
    </g>
  </g>
</svg>