<?xml version="1.0" encoding="UTF-8"?>
<svg id="Camada_2" data-name="Camada 2" xmlns="http://www.w3.org/2000/svg" viewBox="0 0 328.95 371.84">
  <defs>
    <style>
      .cls-1 {
        fill: #e34d26;
      }

      .cls-2 {
        fill: #f0672c;
      }

      .cls-3 {
        fill: #f0652a;
      }

      .cls-4 {
        fill: #eae8e8;
      }

      .cls-5 {
        fill: #e24c26;
      }
    </style>
  </defs>
  <g id="Camada_1-2" data-name="Camada 1">
    <g>
      <path class="cls-5" d="M0,11.12V2.22C0,.97,1.03-.04,2.28,0c1.4,.05,2.8,.09,4.2,.09,105.3,0,210.59,0,315.89,0h4.36c1.26,0,2.26,1.05,2.22,2.31-.05,1.4-.1,2.61-.2,3.8-4.86,54.04-9.77,108.08-14.6,162.12-4.83,54.05-9.6,108.1-14.27,162.15-.32,3.68-1.58,5.41-5.28,6.42-41.55,11.36-83.04,22.97-124.6,34.29-3.3,.9-7.21,.82-10.56,.01-10.18-2.45-20.22-5.49-30.32-8.29-31.41-8.71-62.83-17.41-94.24-26.12-2.36-.65-4.62-.94-4.88-4.49-1.16-15.77-2.64-31.51-4.04-47.26-2.77-31.17-5.55-62.34-8.34-93.51-3.2-35.81-6.42-71.62-9.61-107.43C5.94,60.9,3.92,37.68,1.78,14.48c-.06-.65-.65-1.25-1.2-1.86C.21,12.21,0,11.67,0,11.12ZM164.34,255.89c-.32,1.19-1.52,1.9-2.71,1.59-12.46-3.26-24.9-6.62-37.42-9.67-3.77-.92-5.49-2.4-5.72-6.5-.47-8.56-1.44-17.09-2.25-25.56-.11-1.14-1.06-2.01-2.21-2.01h-36.95c-1.25,0-2.32,1.04-2.22,2.29,0,0,0,.01,0,.02,1.72,19.9,3.41,39.81,5.31,59.69,.11,1.17,1.68,2.84,2.88,3.18,26.97,7.65,53.98,15.15,80.99,22.67,.33,.05,.64,.14,.94,.27,0,11.49,0,22.99,0,34.48,0,7.79,.04,7.9,7.31,5.92,14.94-4.07,29.85-8.26,44.77-12.41,17.49-4.86,34.99-9.67,52.43-14.72,1.7-.49,4.08-2.41,4.24-3.86,1.95-18.83,3.56-37.7,5.26-56.56,1.22-13.56,2.46-27.13,3.69-40.69,1.1-12.08,2.25-24.15,3.29-36.23,1.14-13.24,2.12-26.49,3.3-39.73,1.85-20.68,3.84-41.34,5.7-62.02,1.18-13.07,1.98-26.18,3.41-39.22,.98-8.97,.57-9.86-8.5-9.87-30.16-.02-60.31,0-90.47,0-9.33,0-18.66,.02-27.99,.02-4.41,0-6.64,1.66-6.53,6.58,.24,10.77,.1,21.56,.07,32.34l-3.15,2.89c-.26-.02-.52-.03-.79-.03-31.83-.01-63.66-.01-95.49,0-.56,0-1.11,.05-1.74,.13-1.19,.14-2.05,1.21-1.95,2.4,3.56,39.95,7.1,79.63,10.67,119.74,.1,1.14,1.07,2.02,2.22,2.03,2.23,0,4.26,0,6.29,0,26.91-.08,53.83-.16,80.74-.23l3.16,3.15c.01,18.79,.05,37.58-.02,56.37,0,1.18-.29,2.36-.61,3.54Z"/>
      <path class="cls-3" d="M167.2,68.54c-1.23,0-2.22-1-2.22-2.22,.03-10.92,.18-21.84-.07-32.76-.11-4.92,2.12-6.58,6.53-6.58,9.33,0,18.66-.02,27.99-.02,30.16,0,60.31-.01,90.47,0,9.06,0,9.48,.9,8.5,9.87-1.43,13.04-2.23,26.15-3.41,39.22-1.86,20.68-3.86,41.34-5.7,62.02-1.18,13.24-2.15,26.49-3.3,39.73-1.04,12.08-2.19,24.15-3.29,36.23-1.23,13.56-2.47,27.12-3.69,40.69-1.7,18.86-3.3,37.73-5.26,56.56-.15,1.45-2.54,3.37-4.24,3.86-17.43,5.05-34.94,9.85-52.43,14.72-14.92,4.15-29.83,8.34-44.77,12.41-7.27,1.98-7.31,1.88-7.31-5.92,0-11,0-22,0-33,0-.91,.56-1.73,1.4-2.07,.3-.12,.6-.23,.91-.31,24.67-6.83,49.34-13.63,74.01-20.45,8.08-2.24,7.93-2.28,8.64-10.43,2.52-29,5.16-57.99,7.73-86.98,.84-9.45,1.62-18.91,2.45-28.78,.11-1.3-.92-2.41-2.22-2.41-1.44,0-2.73,0-4.02,0-28.9-.05-57.8-.1-86.7-.15-1.22,0-2.22-1-2.22-2.22,0-12.41,0-24.83,0-37.24,0-1.23,.99-2.22,2.22-2.22h94.89c1.15,0,2.11-.88,2.21-2.03,1.12-12.44,2.2-24.49,3.31-36.87,.12-1.3-.91-2.42-2.21-2.42-1.86,0-3.49,0-5.12,0-31.03-.07-62.06-.14-93.09-.21Z"/>
      <path class="cls-4" d="M161.99,68.8l1.92,.02c0,12.17,.13,38.7,.13,38.7l-.16,2.14-2.06,.08h-52.56c-1.31,0-2.33,1.12-2.21,2.42,1.16,12.93,2.28,25.25,3.42,37.91,.1,1.14,1.06,2.02,2.21,2.02h49.14c1.23,0,2.22,.99,2.22,2.22v.61c1.23-1.23,1.94-1.93,3.17-3.17,28.9,.06,57.8,.11,86.69,.16h4.02c1.3,0,2.33,1.12,2.22,2.41-.84,9.88-1.62,19.33-2.45,28.78-2.58,29-5.22,57.99-7.74,86.98-.71,8.16-.55,8.2-8.64,10.44-24.67,6.82-49.34,13.62-74.01,20.45-.79,.22-1.54,.59-2.3,.9-.31-.13-.62-.22-.95-.27v-2.92c0,1.46-1.4,2.53-2.81,2.13-26.07-7.26-52.14-14.5-78.18-21.88-1.2-.35-2.77-2.01-2.88-3.18-1.89-19.89-3.59-39.79-5.3-59.69-.01-.01-.01-.02-.01-.02-.1-1.25,.97-2.29,2.22-2.29h36.95c1.14,0,2.1,.86,2.2,2,.81,8.47,1.78,17,2.25,25.56,.23,4.11,1.95,5.59,5.72,6.5,12.54,3.06,25,6.42,37.49,9.69,.82,1.07,1.54,2,2.36,3.07v-.02c0-1,.67-1.88,1.64-2.14,13.52-3.68,27.03-7.44,40.6-10.93,3.33-.86,4.53-2.38,4.7-5.75,.33-6.63,1.15-13.23,1.72-19.85,.74-8.62,1.45-17.24,2.2-26.19,.11-1.29-.91-2.41-2.21-2.41h-45.53c-1.23-1.23-1.93-1.93-3.15-3.16v.5c0,1.22-.99,2.21-2.22,2.22-26.92,.07-53.83,.15-80.75,.23-2.04,.01-4.07,0-6.3,0-1.14,0-2.11-.88-2.21-2.02-3.58-40.11-7.11-79.8-10.67-119.75-.11-1.19,.75-2.25,1.94-2.4,.63-.07,1.18-.13,1.74-.13,31.83-.02,63.66-.02,95.49,0,.31,0,.62,0,.94,.03Z"/>
      <path class="cls-4" d="M267.62,71.18c-1.11,12.38-2.19,24.43-3.31,36.87-.1,1.14-1.06,2.02-2.21,2.02h-94.89c-1.23-1.23-1.94-1.93-3.17-3.16-.01-11.9-.01-23.79-.01-35.69,0,0-.05-1.16-.08-1.52l-.04-.88c31.19,.07,65.18-.13,96.38-.07,1.63,.01,3.26,.01,5.12,.01,1.3,0,2.33,1.12,2.21,2.42Z"/>
      <path class="cls-2" d="M168,257.78l-3.33-3.22c.16-.74,.27-1.47,.28-2.21,.07-18.95,.03-37.9,.02-56.85,0-1.23,.99-2.22,2.22-2.22,15.04,0,30.1,0,45.53,0,1.3,0,2.33,1.12,2.22,2.41-.75,8.95-1.46,17.57-2.21,26.19-.57,6.62-1.38,13.22-1.72,19.85-.17,3.37-1.37,4.89-4.7,5.75-12.8,3.29-25.54,6.83-38.3,10.3Z"/>
      <path class="cls-1" d="M161.82,109.73l3.17,3.17c0,12,0,24.01,0,36.01l-3.17,3.17c-16.24,0-32.49,0-49.14,0-1.15,0-2.11-.88-2.22-2.02-1.14-12.65-2.25-24.98-3.42-37.9-.12-1.3,.91-2.43,2.21-2.43h52.56Z"/>
    </g>
  </g>
</svg>