<?xml version="1.0" encoding="UTF-8"?>
<svg id="Camada_1" data-name="Camada 1" xmlns="http://www.w3.org/2000/svg" viewBox="0 0 800 780">
  <defs>
    <style>
      .cls-1 {
        fill: #fd9800;
      }

      .cls-2 {
        fill: #fd9900;
      }

      .cls-3 {
        fill: #340100;
      }

      .cls-4 {
        fill: #300;
      }
    </style>
  </defs>
  <path class="cls-4" d="M800,121V659c-.98,2.7-2.31,5.33-2.89,8.11-5.84,28.02-19.04,52.17-39.26,72.16-20.5,20.26-45.21,33.09-73.67,38.46-1.8,.34-3.45,1.5-5.18,2.27H121c-1.72-.78-3.37-1.93-5.18-2.27-29.13-5.6-54.21-18.92-75.02-39.94-20.32-20.53-33.05-45.2-38.53-73.6-.35-1.81-1.5-3.46-2.27-5.18,0-179.33,0-358.67,0-538,.98-2.7,2.3-5.33,2.89-8.11,5.86-27.6,18.7-51.47,38.62-71.38C62.59,20.45,87.95,7.37,117.3,2.01c1.31-.24,2.47-1.32,3.7-2.01,186,0,372,0,558,0,2.7,.98,5.33,2.31,8.11,2.88,27.53,5.64,51.3,18.53,71.09,38.2,20.81,20.69,34.03,45.75,39.52,74.74,.34,1.8,1.5,3.45,2.27,5.18Zm-476.12,77.25c-13.49,0-26.99,.12-40.48-.07-4.5-.06-6.03,1.61-6.34,6.1-.52,7.6-.65,15.53-3.01,22.64-12.5,37.72-25.57,75.26-38.58,112.81-23.23,67.1-46.57,134.17-69.84,201.25-2.61,7.54-1.7,8.77,6.32,8.77,18.83,0,37.65-.13,56.48,.09,5.37,.06,8.08-1.88,9.71-7.08,7.46-23.8,15.33-47.47,22.85-71.26,1.13-3.59,2.69-4.86,6.57-4.84,38.15,.16,76.3,.15,114.46,.01,3.61-.01,5.11,1.11,6.27,4.54,8.08,23.95,16.54,47.77,24.55,71.75,1.73,5.18,4.43,6.96,9.79,6.9,20.99-.25,41.98-.09,62.98-.11,7.5,0,8.24-1.05,5.71-8.19-39.85-112.55-79.73-225.1-119.5-337.69-1.46-4.12-3.58-5.76-7.95-5.69-13.33,.2-26.66,.07-39.98,.07Zm280.12,219.64c0-41.99,0-83.99,0-125.98,0-6.61-.53-7.14-7.13-7.15-20.16-.02-40.33-.02-60.49,0-6.45,0-7.11,.64-7.11,7.18-.02,83.82-.02,167.64,0,251.46,0,6.84,1.02,7.84,7.78,7.85,19.5,.02,38.99,.01,58.49,0,8.24,0,8.47-.23,8.48-8.38,0-41.66,0-83.32,0-124.98Zm-78.23-203.25c0,25.21,16.77,42.04,41.94,42.11,23.72,.07,40.96-17.7,41.01-42.26,.05-24.85-16.55-41.51-41.34-41.48-24.02,.02-41.62,17.62-41.62,41.63Z"/>
  <path class="cls-2" d="M323.88,198.25c13.33,0,26.66,.13,39.98-.07,4.37-.07,6.49,1.57,7.95,5.69,39.77,112.59,79.65,225.13,119.5,337.69,2.53,7.14,1.8,8.19-5.71,8.19-20.99,.01-41.99-.14-62.98,.11-5.36,.06-8.06-1.72-9.79-6.9-8.01-23.97-16.48-47.8-24.55-71.75-1.16-3.43-2.66-4.55-6.27-4.54-38.15,.14-76.3,.15-114.46-.01-3.88-.02-5.43,1.26-6.57,4.84-7.52,23.78-15.4,47.45-22.85,71.26-1.63,5.2-4.34,7.14-9.71,7.08-18.82-.22-37.65-.08-56.48-.09-8.02,0-8.94-1.24-6.32-8.77,23.27-67.09,46.61-134.15,69.84-201.25,13-37.55,26.08-75.09,38.58-112.81,2.36-7.11,2.49-15.04,3.01-22.64,.31-4.49,1.84-6.16,6.34-6.1,13.49,.18,26.99,.07,40.48,.07Zm42.46,200.6c-14.39-46.41-28.6-92.22-42.36-136.62-13.53,44.81-27.38,90.66-41.26,136.62h83.62Z"/>
  <path class="cls-2" d="M604,417.89c0,41.66,0,83.32,0,124.98,0,8.16-.24,8.38-8.48,8.38-19.5,0-38.99,.01-58.49,0-6.75,0-7.77-1.01-7.78-7.85-.01-83.82-.02-167.64,0-251.46,0-6.54,.67-7.17,7.11-7.18,20.16-.02,40.33-.02,60.49,0,6.6,0,7.13,.53,7.13,7.15,.01,41.99,0,83.99,0,125.98Z"/>
  <path class="cls-1" d="M525.77,214.64c0-24.01,17.6-41.61,41.62-41.63,24.79-.02,41.39,16.64,41.34,41.48-.05,24.56-17.29,42.33-41.01,42.26-25.17-.07-41.94-16.91-41.94-42.11Z"/>
  <path class="cls-3" d="M366.34,398.85h-83.62c13.88-45.96,27.73-91.81,41.26-136.62,13.77,44.4,27.97,90.2,42.36,136.62Z"/>
</svg>