<?xml version="1.0" encoding="UTF-8"?>
<svg id="Camada_1" data-name="Camada 1" xmlns="http://www.w3.org/2000/svg" viewBox="0 0 1200 1200">
  <defs>
    <style>
      .cls-1 {
        fill: #010100;
      }

      .cls-2 {
        fill: #f6de1e;
      }
    </style>
  </defs>
  <path class="cls-2" d="M0,1200V0c400,0,800,0,1200,0V1200H0Zm714.45-209.25c20.76,40.16,50.69,70.16,90.5,90.17,30.35,15.26,62.78,22.67,96.53,24.56,39.2,2.21,77.53-1.82,113.97-17.48,36.66-15.76,64.51-40.74,79.97-78.2,10.73-26,12.98-53.17,10.5-80.91-3.03-33.9-14.96-63.96-38.58-88.93-17.36-18.36-37.73-32.9-60.23-43.97-28.47-14-57.6-26.66-86.45-39.88-15.13-6.93-30.37-13.7-43.23-24.58-16.13-13.64-20.92-31.34-16.63-51.34,4.25-19.83,17.73-31.45,37.08-35.37,31.66-6.41,57.88,2.88,77.16,29.48,3.88,5.35,7.37,10.98,11.19,16.72,29.19-18.75,58.25-37.42,87.48-56.19-18.03-31.44-40.68-57.74-73.77-72.82-46.8-21.33-95.44-22.69-144.44-9.28-36.84,10.08-66.76,30.94-86.44,64.2-26.2,44.3-26.7,91.19-10.27,138.66,11.72,33.87,36.07,57.73,65.42,76.99,24.89,16.33,52.39,27.35,79.38,39.5,20.89,9.4,41.53,19.45,61.76,30.18,10.99,5.83,19.64,14.86,24.59,26.75,11.25,27.01-.28,55.74-28.31,67.86-32.01,13.84-64.37,12.12-95.97-1.61-24.9-10.83-41.99-30.54-56.43-52.83-1.04-1.61-2.11-3.21-3.21-4.89-30.71,17.84-60.9,35.38-91.56,53.19Zm-398.22,11.95c.27,.83,.36,1.29,.56,1.71,18.51,38.18,45.8,67.83,85.12,84.84,47.91,20.73,97.38,21.77,147.07,7.67,44.28-12.57,75.14-40.83,91.78-83.99,9.97-25.85,12.77-52.91,12.76-80.4-.03-125.3-.01-250.59-.01-375.89v-5.37h-112.68c0,2.23,0,4.2,0,6.17,0,124.3,.04,248.59-.08,372.89,0,9.3-.62,18.67-1.85,27.88-3.74,27.97-17.83,42.37-45.42,46.27-27.04,3.82-49.82-3.96-66.26-26.59-5.95-8.19-11.04-17.01-16.52-25.54-1.03-1.6-2.05-3.21-3.15-4.93-30.73,18.61-61.01,36.94-91.31,55.29Z"/>
  <path class="cls-1" d="M714.45,990.75c30.65-17.81,60.84-35.35,91.56-53.19,1.1,1.68,2.17,3.28,3.21,4.89,14.44,22.28,31.53,42,56.43,52.83,31.6,13.74,63.96,15.45,95.97,1.61,28.03-12.12,39.56-40.85,28.31-67.86-4.95-11.88-13.6-20.91-24.59-26.75-20.23-10.74-40.87-20.79-61.76-30.18-26.99-12.14-54.49-23.16-79.38-39.5-29.35-19.26-53.71-43.12-65.42-76.99-16.42-47.47-15.93-94.36,10.27-138.66,19.68-33.27,49.59-54.12,86.44-64.2,49-13.41,97.64-12.05,144.44,9.28,33.09,15.08,55.74,41.37,73.77,72.82-29.22,18.77-58.28,37.44-87.48,56.19-3.82-5.74-7.31-11.37-11.19-16.72-19.28-26.6-45.5-35.89-77.16-29.48-19.34,3.91-32.82,15.54-37.08,35.37-4.29,20.01,.5,37.7,16.63,51.34,12.86,10.88,28.1,17.65,43.23,24.58,28.85,13.22,57.98,25.87,86.45,39.88,22.5,11.07,42.87,25.61,60.23,43.97,23.61,24.97,35.55,55.03,38.58,88.93,2.48,27.74,.23,54.91-10.5,80.91-15.46,37.46-43.31,62.44-79.97,78.2-36.44,15.66-74.77,19.69-113.97,17.48-33.75-1.9-66.18-9.31-96.53-24.56-39.81-20.01-69.74-50.01-90.5-90.17Z"/>
  <path d="M316.23,1002.7c30.31-18.35,60.58-36.68,91.31-55.29,1.1,1.72,2.12,3.33,3.15,4.93,5.48,8.53,10.57,17.35,16.52,25.54,16.44,22.64,39.22,30.42,66.26,26.59,27.6-3.9,41.68-18.31,45.42-46.27,1.23-9.21,1.84-18.58,1.85-27.88,.12-124.3,.08-248.59,.08-372.89,0-1.97,0-3.93,0-6.17h112.68v5.37c0,125.3-.02,250.59,.01,375.89,0,27.49-2.79,54.55-12.76,80.4-16.65,43.16-47.5,71.42-91.78,83.99-49.69,14.1-99.16,13.07-147.07-7.67-39.31-17.01-66.61-46.66-85.12-84.84-.2-.42-.29-.88-.56-1.71Z"/>
</svg>