<?xml version="1.0" encoding="UTF-8"?>
<svg id="Camada_1" data-name="Camada 1" xmlns="http://www.w3.org/2000/svg" viewBox="0 0 514 493">
  <defs>
    <style>
      .cls-1 {
        fill: #0c0d24;
      }

      .cls-2 {
        fill: #5eb0d2;
      }

      .cls-3 {
        fill: #084965;
      }

      .cls-4 {
        fill: #38bbeb;
      }

      .cls-5 {
        fill: #031330;
      }

      .cls-6 {
        fill: #0d0b21;
      }
    </style>
  </defs>
  <path class="cls-4" d="M2,0h512V493H2c.01-81.08,.03-162.17,.03-243.25,0-83.25-.02-166.5-.03-249.75ZM491.96,25.25H25.19V471.63H491.96V25.25Z"/>
  <path class="cls-3" d="M1,493c-.33-1.33-.95-2.67-.96-4C-.01,461.83,0,434.67,0,407.5,0,273.17,0,138.83,.04,4.5c0-1.5,.63-3,.96-4.5,0,164.33,0,328.67,0,493Z"/>
  <path class="cls-2" d="M1,493V0h1c.01,83.25,.03,166.5,.03,249.75,0,81.08-.02,162.17-.03,243.25H1Z"/>
  <path class="cls-5" d="M491.96,25.25V471.63H25.19V25.25H491.96ZM27.32,470.99c4.93,0,9.06,0,13.2,0,145.82,0,291.64,0,437.46,0,2.17,0,4.34-.13,6.5,.02,4.05,.28,5.83-1.4,5.62-5.53-.43-8.8-1-17.6-.98-26.41,.27-134.77,.62-269.54,.95-404.32,.02-7.73-.01-7.75-7.84-7.75-149.15,0-298.31,0-447.46,0-7.74,0-7.77,.03-7.77,7.83,0,143.13,0,286.26,0,429.4,0,1.96,.18,3.91,.31,6.76Z"/>
  <path class="cls-6" d="M27.32,470.99c-.14-2.85-.31-4.81-.31-6.76-.01-143.13-.01-286.26,0-429.4,0-7.8,.04-7.83,7.77-7.83,149.15,0,298.31,0,447.46,0,7.82,0,7.86,.02,7.84,7.75-.33,134.77-.68,269.54-.95,404.32-.02,8.8,.55,17.61,.98,26.41,.2,4.13-1.58,5.81-5.62,5.53-2.16-.15-4.33-.02-6.5-.02-145.82,0-291.64,0-437.46,0-4.14,0-8.27,0-13.2,0Zm125.62-203.18c9.85-.62,19.27-1.22,28.7-1.81,14.16-.88,27.65-4.27,40-11.35,27.46-15.75,37.88-40.43,36.23-70.97-1.85-34.35-22.82-59.27-56.64-65.46-15.93-2.92-32.4-3.36-48.66-3.77-11.73-.29-23.51,1.34-35.26,2.11v232.09h35.64v-80.86Zm228.05-53.07c2.07-12.14,4.02-23.55,5.96-34.93-16.44-5.46-45.13-8.56-61.75-4.18-22.6,5.96-36.28,20.4-39.8,43.38-3.23,21.08,3.26,38.12,21.59,49.92,4.62,2.97,9.48,5.57,14.09,8.56,8.8,5.69,17.84,11.09,26.13,17.46,7.13,5.48,7.11,13.88,.35,19.8-2.56,2.24-6.39,3.55-9.84,4.15-9.35,1.61-18.57,.22-27.6-2.57-7.1-2.2-14.24-4.29-21.85-6.57v38.16c19.68,4.54,39.23,7.37,59.16,3.9,32.99-5.75,51.54-33.3,43.63-64.68-3.52-13.95-12.67-23.57-24.54-30.85-11.35-6.97-22.99-13.46-34.31-20.48-5.36-3.32-10.14-7.64-8.78-14.92,1.46-7.8,6.83-11.92,14.36-13.4,8.91-1.75,17.53-.3,26.07,2.37,5.49,1.72,11.08,3.16,17.13,4.87Z"/>
  <path class="cls-4" d="M152.95,267.8v80.86h-35.64V116.56c11.75-.77,23.53-2.4,35.26-2.11,16.26,.4,32.73,.85,48.66,3.77,33.82,6.19,54.79,31.11,56.64,65.46,1.65,30.54-8.77,55.22-36.23,70.97-12.35,7.08-25.84,10.46-40,11.35-9.43,.59-18.85,1.19-28.7,1.81Zm1.15-37.95c10.18,0,19.85,.62,29.4-.14,14.81-1.18,25.5-8.57,30.97-22.92,5.57-14.63,5.52-28.43-4.22-41.55-11.08-14.93-31.3-19.38-56.15-12.43v77.05Z"/>
  <path class="cls-4" d="M381,214.74c-6.05-1.71-11.63-3.15-17.13-4.87-8.54-2.67-17.17-4.12-26.07-2.37-7.53,1.48-12.9,5.59-14.36,13.4-1.36,7.28,3.42,11.59,8.78,14.92,11.32,7.02,22.96,13.52,34.31,20.48,11.86,7.28,21.02,16.9,24.54,30.85,7.91,31.37-10.64,58.93-43.63,64.68-19.93,3.47-39.47,.64-59.16-3.9v-38.16c7.62,2.29,14.75,4.37,21.85,6.57,9.03,2.8,18.24,4.18,27.6,2.57,3.45-.59,7.28-1.91,9.84-4.15,6.76-5.92,6.79-14.32-.35-19.8-8.29-6.37-17.33-11.76-26.13-17.46-4.61-2.98-9.47-5.58-14.09-8.56-18.33-11.8-24.81-28.84-21.59-49.92,3.52-22.98,17.2-37.42,39.8-43.38,16.63-4.38,45.31-1.28,61.75,4.18-1.94,11.38-3.89,22.79-5.96,34.93Z"/>
  <path class="cls-1" d="M154.09,229.85v-77.05c24.85-6.95,45.06-2.49,56.15,12.43,9.74,13.12,9.79,26.91,4.22,41.55-5.47,14.35-16.15,21.75-30.97,22.92-9.55,.76-19.22,.14-29.4,.14Z"/>
</svg>