<?xml version="1.0" encoding="UTF-8"?>
<svg id="Camada_1" data-name="Camada 1" xmlns="http://www.w3.org/2000/svg" viewBox="0 0 458.55 447.21">
  <defs>
    <style>
      .cls-1 {
        fill: #9898fe;
      }

      .cls-2 {
        fill: #00005b;
      }

      .cls-3 {
        fill: #9898fd;
      }
    </style>
  </defs>
  <path class="cls-2" d="M387.44,447.21H71.12c-.52-.29-1.02-.71-1.58-.85-4.92-1.23-10.03-1.93-14.75-3.69-30.27-11.29-48.22-32.96-53.92-64.77-.11-.63-.57-1.21-.86-1.81C0,274.43,0,172.78,0,71.12c.29-.6,.76-1.18,.86-1.81C6.06,33.97,34.03,6,69.31,.86c.63-.09,1.21-.56,1.81-.86,105.59,0,211.17,0,316.76,0,.67,.32,1.3,.81,2,.93,17.32,2.83,32.31,10.31,44.72,22.7,12.74,12.72,20.45,28.06,23.11,45.9,.08,.56,.55,1.06,.84,1.59V376.09c-.3,.67-.77,1.32-.88,2.02-2.8,17.73-10.49,33-23.22,45.61-12.56,12.44-27.69,19.96-45.21,22.63-.63,.1-1.21,.56-1.81,.85ZM150.4,251.91c3.16,0,5.98-.09,8.8,.01,16.2,.57,32.27-.1,47.88-4.99,17.73-5.57,31.47-16.18,39.66-33.07,6.43-13.25,7.8-27.46,5.88-41.93-2.91-21.99-14.13-38.41-33.91-48.68-13.64-7.08-28.41-9.78-43.6-9.76-20.93,.03-41.86,.59-62.79,.93-3.22,.05-3.39,.23-3.39,3.56,0,64.7,0,129.4,0,194.1,0,3.28,.37,3.64,3.61,3.65,11.27,0,22.54,0,33.8,0,3.51,0,4.05-.54,4.05-4.02,0-19.05,0-38.09,0-57.14,0-.86,0-1.72,0-2.66Zm170.81-69.43c-.86-5.13-1.59-10.51-2.71-15.82-.63-3-2.14-3.86-5.22-3.86-10.62-.01-21.23,.02-31.85-.03-1.93,0-2.54,.81-2.48,2.65,.46,12.42,1.17,24.84,1.23,37.26,.17,36.35,.07,72.71,.08,109.06,0,3.84,.54,4.38,4.44,4.38,10.4,0,20.79,0,31.19,0,1.74,0,3.49,0,5.23-.05,1.48-.04,2.27-.83,2.29-2.33,.01-.87,.03-1.74,.03-2.62,0-30.97,.02-61.95-.04-92.92,0-1.69,.52-2.86,1.73-3.98,3.77-3.48,8.27-5.63,13.01-7.32,9.95-3.55,20.2-5.32,30.78-5.1,3.71,.08,4.07-.33,4.07-4.11,0-11.49,0-22.98,0-34.46,0-3.07-.62-3.63-3.74-3.6-13.81,.13-26.02,4.89-36.89,13.14-4.02,3.05-7.64,6.63-11.14,9.71Z"/>
  <path class="cls-1" d="M150.4,251.91c0,.94,0,1.8,0,2.66,0,19.05,0,38.09,0,57.14,0,3.49-.54,4.02-4.05,4.02-11.27,0-22.54,0-33.8,0-3.24,0-3.61-.37-3.61-3.65,0-64.7,0-129.4,0-194.1,0-3.32,.17-3.5,3.39-3.56,20.93-.34,41.86-.91,62.79-.93,15.19-.02,29.96,2.68,43.6,9.76,19.78,10.27,30.99,26.69,33.91,48.68,1.92,14.47,.55,28.68-5.88,41.93-8.19,16.89-21.93,27.5-39.66,33.07-15.6,4.9-31.68,5.56-47.88,4.99-2.82-.1-5.65-.01-8.8-.01Zm.26-35.83c6.4,0,12.64,.02,18.87,0,7.47-.03,14.78-1.24,21.79-3.79,10.16-3.7,17.65-10.14,19.6-21.34,.67-3.83,.92-7.84,.59-11.71-.87-10.42-5.77-18.48-15.33-23.19-2.96-1.46-6.21-2.44-9.42-3.3-7.61-2.05-15.42-1.58-23.18-1.52-4.26,.03-8.53,0-12.91,0v64.85Z"/>
  <path class="cls-3" d="M321.21,182.48c3.51-3.08,7.12-6.66,11.14-9.71,10.88-8.25,23.08-13.01,36.89-13.14,3.12-.03,3.74,.53,3.74,3.6,0,11.49,0,22.98,0,34.46,0,3.78-.35,4.18-4.07,4.11-10.58-.22-20.83,1.56-30.78,5.1-4.74,1.69-9.24,3.84-13.01,7.32-1.21,1.11-1.73,2.28-1.73,3.98,.05,30.97,.04,61.95,.04,92.92,0,.87-.02,1.74-.03,2.62-.02,1.5-.8,2.29-2.29,2.33-1.74,.05-3.49,.05-5.23,.05-10.4,0-20.79,0-31.19,0-3.9,0-4.44-.54-4.44-4.38,0-36.35,.09-72.71-.08-109.06-.06-12.42-.77-24.84-1.23-37.26-.07-1.84,.55-2.66,2.48-2.65,10.62,.04,21.23,.02,31.85,.03,3.08,0,4.59,.86,5.22,3.86,1.12,5.31,1.85,10.69,2.71,15.82Z"/>
  <path class="cls-2" d="M150.66,216.08v-64.85c4.38,0,8.64,.03,12.91,0,7.77-.06,15.58-.52,23.18,1.52,3.21,.86,6.45,1.84,9.42,3.3,9.56,4.71,14.46,12.77,15.33,23.19,.32,3.87,.07,7.88-.59,11.71-1.95,11.2-9.43,17.64-19.6,21.34-7,2.55-14.31,3.76-21.79,3.79-6.23,.02-12.46,0-18.87,0Z"/>
</svg>