<?xml version="1.0" encoding="UTF-8"?>
<svg id="Camada_1" data-name="Camada 1" xmlns="http://www.w3.org/2000/svg" viewBox="0 0 524.54 524.73">
  <defs>
    <style>
      .cls-1 {
        fill: #1f3050;
      }

      .cls-2 {
        fill: #fdfdfd;
      }
    </style>
  </defs>
  <path class="cls-1" d="M457.97,262.37c20.71,30.06,41.43,59.99,61.94,90.07,2.16,3.18,3.77,7.11,4.38,10.9,1.43,8.95-5.92,15.4-14.72,17.02-33.61,6.2-67.21,12.43-100.82,18.61-8.18,1.51-8.25,1.43-9.78,9.69-6.15,33.24-12.19,66.49-18.47,99.7-.65,3.44-2.08,6.99-4.06,9.85-4.48,6.48-12.12,8.35-19.13,4.58-5.57-3-10.75-6.77-15.98-10.37-25.48-17.51-50.95-35.04-76.34-52.68-2.13-1.48-3.43-1.35-5.48,.07-28.59,19.81-57.25,39.53-85.9,59.26-.72,.5-1.44,.99-2.16,1.48-11.96,8.03-24.71,2.71-27.37-11.5-3.3-17.65-6.52-35.32-9.78-52.98-3.23-17.54-6.52-35.08-9.64-52.64-.39-2.22-1.21-3.13-3.39-3.53-28.84-5.25-57.66-10.57-86.49-15.88-6.38-1.17-12.76-2.33-19.12-3.57-15.18-2.95-20.09-14.99-11.28-27.82,19.84-28.88,39.73-57.72,59.6-86.58,.85-1.23,1.69-2.46,2.58-3.76-19.8-28.74-39.6-57.48-59.39-86.21-1.13-1.64-2.29-3.27-3.38-4.94-7.68-11.69-2.41-24.31,11.37-26.9,24.14-4.54,48.32-8.95,72.48-13.41,11.16-2.06,22.33-4.14,33.5-6.14,2.05-.37,3.09-1.05,3.52-3.4,6.34-34.98,12.73-69.94,19.41-104.86,.74-3.86,2.54-8.02,5.11-10.93,6.18-7.02,13.92-7.2,22.47-1.32,29.18,20.06,58.36,40.12,87.45,60.31,2.46,1.71,3.97,1.68,6.4,0,28.99-20.11,58.05-40.13,87.17-60.05,2.61-1.78,5.7-3.23,8.77-3.89,8.08-1.74,15.1,1.94,17.37,9.83,2.44,8.47,3.86,17.25,5.48,25.94,5.25,28.08,10.45,56.16,15.49,84.28,.52,2.9,1.74,3.76,4.43,4.24,34.97,6.37,69.93,12.82,104.87,19.34,14.95,2.79,19.88,15,11.21,27.61-19.7,28.67-39.46,57.3-59.19,85.95-1.05,1.52-2.06,3.05-3.11,4.61Zm-343.14-.02c-.15,82.17,65.93,147.43,147.56,147.39,81.83-.03,147.32-65.66,147.39-147.27,.08-82.98-66.97-147.47-147.46-147.53-80.78-.06-147.81,65.07-147.49,147.41Z"/>
  <path class="cls-2" d="M114.84,262.34c-.32-82.35,66.71-147.47,147.49-147.41,80.49,.06,147.54,64.55,147.46,147.53-.08,81.62-65.56,147.24-147.39,147.27-81.63,.03-147.71-65.22-147.56-147.39Zm154.4,116.47c3.01-.35,8.36-.77,13.65-1.61,23.58-3.72,44.11-13.71,61.45-30.18,6.1-5.8,7.42-12.45,3.91-20-3.06-6.59-8.26-9.36-16.63-8.31-9.24,1.16-18.38,.97-27.55-.61-39.32-6.79-66.17-42.22-62.66-81.35,1.81-20.16,10.05-37.44,25.49-50.85,4.78-4.15,10.23-7.54,15.19-11.49,5.43-4.33,7.36-10.79,5.34-16.71-2.48-7.31-8.01-11.83-15.06-11.97-20.28-.42-40.08,2.03-58.75,10.56-20.5,9.38-36.93,23.69-49.25,42.41-16.09,24.46-21.23,51.55-17.41,80.43,4.12,31.18,19.47,56.03,43.78,75.33,22.18,17.61,48.07,24.59,78.47,24.34Z"/>
  <path class="cls-1" d="M269.23,378.81c-30.4,.25-56.29-6.73-78.47-24.34-24.31-19.3-39.66-44.16-43.78-75.33-3.82-28.88,1.32-55.97,17.41-80.43,12.32-18.72,28.75-33.03,49.25-42.41,18.67-8.54,38.47-10.98,58.75-10.56,7.04,.15,12.57,4.67,15.06,11.97,2.01,5.92,.09,12.38-5.34,16.71-4.96,3.96-10.41,7.34-15.19,11.49-15.44,13.4-23.69,30.69-25.49,50.85-3.51,39.14,23.34,74.56,62.66,81.35,9.17,1.58,18.31,1.77,27.55,.61,8.37-1.05,13.57,1.72,16.63,8.31,3.51,7.55,2.19,14.2-3.91,20-17.34,16.47-37.87,26.46-61.45,30.18-5.29,.83-10.64,1.26-13.65,1.61Z"/>
</svg>